<?xml version="1.0" encoding="UTF-8" standalone="no"?>
<!-- Created with Inkscape (http://www.inkscape.org/) -->

<svg
   xmlns:dc="http://purl.org/dc/elements/1.1/"
   xmlns:cc="http://creativecommons.org/ns#"
   xmlns:rdf="http://www.w3.org/1999/02/22-rdf-syntax-ns#"
   xmlns:svg="http://www.w3.org/2000/svg"
   xmlns="http://www.w3.org/2000/svg"
   xmlns:sodipodi="http://sodipodi.sourceforge.net/DTD/sodipodi-0.dtd"
   xmlns:inkscape="http://www.inkscape.org/namespaces/inkscape"
   id="svg2"
   version="1.1"
   inkscape:version="0.48.3.1 r9886"
   width="1500"
   height="1000"
   xml:space="preserve"
   sodipodi:docname="Pzz_30_fdil_all.svg"><metadata
     id="metadata8"><rdf:RDF><cc:Work
         rdf:about=""><dc:format>image/svg+xml</dc:format><dc:type
           rdf:resource="http://purl.org/dc/dcmitype/StillImage" /><dc:title /></cc:Work></rdf:RDF></metadata><defs
     id="defs6" /><sodipodi:namedview
     pagecolor="#ffffff"
     bordercolor="#666666"
     borderopacity="1"
     objecttolerance="10"
     gridtolerance="10"
     guidetolerance="10"
     inkscape:pageopacity="0"
     inkscape:pageshadow="2"
     inkscape:window-width="1920"
     inkscape:window-height="1056"
     id="namedview4"
     showgrid="false"
     inkscape:zoom="1.2472466"
     inkscape:cx="271.49395"
     inkscape:cy="807.51137"
     inkscape:window-x="0"
     inkscape:window-y="24"
     inkscape:window-maximized="1"
     inkscape:current-layer="g10" /><g
     id="g10"
     inkscape:groupmode="layer"
     inkscape:label="ink_ext_XXXXXX"
     transform="matrix(1.25,0,0,-1.25,0,1000)"><path
   inkscape:connector-curvature="0"
   id="path16"
   style="fill:none;stroke:#0000ff;stroke-width:1.19988002;stroke-linecap:butt;stroke-linejoin:miter;stroke-miterlimit:10;stroke-opacity:1;stroke-dasharray:1.19988002,1.19988002;stroke-dashoffset:0"
   d="m 79.9121,608.419 0.0801,0.08 2.3195,-1.12 2.2399,1.44 2.3199,-0.32 2.2394,1.84 2.32,4.08 2.2398,-0.721 2.3195,3.76 2.32,0 2.2398,4.08 2.32,5.2 2.239,0.399 2.32,5.6 2.24,5.199 2.32,2.64 2.32,5.199 2.239,6.72 2.32,1.519 2.24,6.72 2.32,7.439 2.24,3.76 2.319,7.839 2.32,5.999 2.24,9.279 2.319,3.76 2.24,6.319 2.32,6.72 2.24,4.159 2.32,8.16 2.319,5.599 2.24,5.279 2.32,5.2 2.24,1.84 2.32,4.479 2.239,3.36 2.32,2.24 2.32,1.12 2.239,1.52 2.32,0.399 2.24,0.321 2.32,-1.12 2.239,-1.44 2.32,-2.24 2.32,-1.12 2.24,0.32 2.32,-6.72 2.24,-2.559 2.319,-4.88 2.24,0.72 2.32,-9.279 2.319,-3.359 2.24,-3.76 2.32,-1.52 2.24,0.8 2.32,-19.838 2.239,-4.48 2.32,-3.359 2.32,-3.36 2.24,-3.679 2.32,-8.959 2.239,-3.04 2.32,-1.44 2.24,-3.36 2.32,-3.36 2.319,-7.839 2.24,-2.64 2.32,-2.959 2.24,-1.12 2.319,-2.64 2.24,-1.12 2.32,-14.158 2.32,-1.12 2.24,-2.24 2.319,-0.8 2.24,-1.84 2.32,-0.719 2.24,-2.24 2.319,-6 2.32,-0.72 2.24,-1.919 2.32,-0.321 2.239,-0.799 2.32,-2.24 2.24,0.8 2.32,-10.479 2.32,-1.12 2.239,-0.4 2.32,-0.32 2.24,-0.8 2.32,-1.12 2.24,-0.56 2.319,-0.48 2.32,-4.399 2.24,-0.4 2.319,-0.48 2.24,-0.4 2.32,0.24 2.24,0.24 2.32,0.24 2.319,0.24 2.24,0.24 2.32,-9.199 2.24,-0.24 2.32,-0.32 2.239,0.16 2.32,0.16 2.32,0.16 2.24,0.16 2.319,0.16 2.24,0.16 2.32,0.16 2.239,-3.76 2.32,0.16 2.32,0.08 2.24,0.16 2.32,0.08 2.24,0.16 2.319,0.16 2.24,0.08 2.32,0.08 2.319,0.16 2.24,0.16 2.32,0.08 2.24,-6 2.32,0.081 2.239,0.08 2.32,0.079 2.32,0.08 2.24,0.08 2.32,0.081 2.239,0.079 2.32,0.08 2.24,0.08 2.32,0.08 2.319,0.081 2.24,0.079 2.32,-4.319 2.24,0.08 2.319,0.08 2.24,0.08 2.32,0.08" /><path
   inkscape:connector-curvature="0"
   id="path18"
   style="fill:none;stroke:#ff0000;stroke-width:1.19988002;stroke-linecap:butt;stroke-linejoin:miter;stroke-miterlimit:10;stroke-opacity:1;stroke-dasharray:1.19988002,1.19988002;stroke-dashoffset:0"
   d="m 79.9121,607.699 0.0801,0 2.3195,-1.12 2.2399,1.52 2.3199,1.52 2.2394,-0.4 2.32,1.84 2.2398,3.759 2.3195,-0.399 2.32,3.359 2.2398,0 2.32,4.16 2.239,5.199 2.32,0 2.24,5.6 2.32,5.599 2.32,2.24 2.239,5.199 2.32,7.12 2.24,2.959 2.32,6.4 2.24,8.559 2.319,3.36 2.32,5.599 2.24,8.959 2.319,4.08 2.24,5.999 2.32,8.559 2.24,6.4 2.32,4.079 2.319,7.84 2.24,5.599 2.32,4.879 2.24,3.36 2.32,4.079 2.239,2.96 2.32,3.04 2.32,1.44 2.239,1.12 2.32,0.4 2.24,0.72 2.32,-0.32 2.239,-2.24 2.32,-2.24 2.32,-1.52 2.24,-3.36 2.32,-2.639 2.24,-4.48 2.319,-2.959 2.24,0.719 2.32,-11.198 2.319,-3.68 2.24,-3.759 2.32,0.72 2.24,-14.879 2.32,-3.76 2.239,-6.319 2.32,-3.36 2.32,-3.759 2.24,-8.559 2.32,-3.36 2.239,-1.12 2.32,-3.36 2.24,-3.36 2.32,-9.759 2.319,-0.72 2.24,-2.959 2.32,-3.04 2.24,-2.96 2.319,-1.119 2.24,-12.319 2.32,-2.64 2.32,-0.72 2.24,-1.519 2.319,-1.84 2.24,-0.72 2.32,-6.4 2.24,-1.84 2.319,-0.4 2.32,-1.84 2.24,-0.719 2.32,-1.92 2.239,-0.32 2.32,-5.6 2.24,-0.4 2.32,-0.719 2.32,-1.52 2.239,0.4 2.32,0.32 2.24,0.4 2.32,0.4 2.24,-11.759 2.319,-0.4 2.32,-0.4 2.24,-0.4 2.319,-0.4 2.24,0.24 2.32,0.32 2.24,0.16 2.32,-7.999 2.319,-0.72 2.24,-0.32 2.32,-0.24 2.24,0.16 2.32,0.16 2.239,0.16 2.32,0.24 2.32,0.08 2.24,0.24 2.319,-3.68 2.24,0.08 2.32,0.16 2.239,0.16 2.32,0.16 2.32,0.08 2.24,0.16 2.32,0.16 2.24,0.08 2.319,0.16 2.24,-5.919 2.32,0.08 2.319,0.079 2.24,0.16 2.32,0 2.24,0.161 2.32,0.079 2.239,0.08 2.32,0.08 2.32,0.16 2.24,0 2.32,0.16 2.239,-4.239 2.32,0.08 2.24,0.08 2.32,0 2.319,0.08 2.24,0.08 2.32,0.08 2.24,0.08 2.319,0.08 2.24,0.08 2.32,0" /><path
   inkscape:connector-curvature="0"
   id="path20"
   style="fill:none;stroke:#000000;stroke-width:1.19988;stroke-linecap:butt;stroke-linejoin:miter;stroke-miterlimit:10;stroke-opacity:1;stroke-dasharray:none"
   d="m 79.9922,559.944 319.9678,0" /><path
   inkscape:connector-curvature="0"
   id="path22"
   style="fill:none;stroke:#000000;stroke-width:1.19988;stroke-linecap:butt;stroke-linejoin:miter;stroke-miterlimit:10;stroke-opacity:1;stroke-dasharray:none"
   d="m 91.4309,559.944 0,7.999" /><path
   inkscape:connector-curvature="0"
   id="path24"
   style="fill:none;stroke:#000000;stroke-width:1.19988;stroke-linecap:butt;stroke-linejoin:miter;stroke-miterlimit:10;stroke-opacity:1;stroke-dasharray:none"
   d="m 114.309,559.944 0,7.999" /><path
   inkscape:connector-curvature="0"
   id="path26"
   style="fill:none;stroke:#000000;stroke-width:1.19988;stroke-linecap:butt;stroke-linejoin:miter;stroke-miterlimit:10;stroke-opacity:1;stroke-dasharray:none"
   d="m 137.106,559.944 0,7.999" /><path
   inkscape:connector-curvature="0"
   id="path28"
   style="fill:none;stroke:#000000;stroke-width:1.19988;stroke-linecap:butt;stroke-linejoin:miter;stroke-miterlimit:10;stroke-opacity:1;stroke-dasharray:none"
   d="m 159.984,559.944 0,7.999" /><path
   inkscape:connector-curvature="0"
   id="path30"
   style="fill:none;stroke:#000000;stroke-width:1.19988;stroke-linecap:butt;stroke-linejoin:miter;stroke-miterlimit:10;stroke-opacity:1;stroke-dasharray:none"
   d="m 182.862,559.944 0,7.999" /><path
   inkscape:connector-curvature="0"
   id="path32"
   style="fill:none;stroke:#000000;stroke-width:1.19988;stroke-linecap:butt;stroke-linejoin:miter;stroke-miterlimit:10;stroke-opacity:1;stroke-dasharray:none"
   d="m 205.659,559.944 0,7.999" /><path
   inkscape:connector-curvature="0"
   id="path34"
   style="fill:none;stroke:#000000;stroke-width:1.19988;stroke-linecap:butt;stroke-linejoin:miter;stroke-miterlimit:10;stroke-opacity:1;stroke-dasharray:none"
   d="m 228.537,559.944 0,7.999" /><path
   inkscape:connector-curvature="0"
   id="path36"
   style="fill:none;stroke:#000000;stroke-width:1.19988;stroke-linecap:butt;stroke-linejoin:miter;stroke-miterlimit:10;stroke-opacity:1;stroke-dasharray:none"
   d="m 251.415,559.944 0,7.999" /><path
   inkscape:connector-curvature="0"
   id="path38"
   style="fill:none;stroke:#000000;stroke-width:1.19988;stroke-linecap:butt;stroke-linejoin:miter;stroke-miterlimit:10;stroke-opacity:1;stroke-dasharray:none"
   d="m 274.293,559.944 0,7.999" /><path
   inkscape:connector-curvature="0"
   id="path40"
   style="fill:none;stroke:#000000;stroke-width:1.19988;stroke-linecap:butt;stroke-linejoin:miter;stroke-miterlimit:10;stroke-opacity:1;stroke-dasharray:none"
   d="m 297.09,559.944 0,7.999" /><path
   inkscape:connector-curvature="0"
   id="path42"
   style="fill:none;stroke:#000000;stroke-width:1.19988;stroke-linecap:butt;stroke-linejoin:miter;stroke-miterlimit:10;stroke-opacity:1;stroke-dasharray:none"
   d="m 319.968,559.944 0,7.999" /><path
   inkscape:connector-curvature="0"
   id="path44"
   style="fill:none;stroke:#000000;stroke-width:1.19988;stroke-linecap:butt;stroke-linejoin:miter;stroke-miterlimit:10;stroke-opacity:1;stroke-dasharray:none"
   d="m 342.846,559.944 0,7.999" /><path
   inkscape:connector-curvature="0"
   id="path46"
   style="fill:none;stroke:#000000;stroke-width:1.19988;stroke-linecap:butt;stroke-linejoin:miter;stroke-miterlimit:10;stroke-opacity:1;stroke-dasharray:none"
   d="m 365.643,559.944 0,7.999" /><path
   inkscape:connector-curvature="0"
   id="path48"
   style="fill:none;stroke:#000000;stroke-width:1.19988;stroke-linecap:butt;stroke-linejoin:miter;stroke-miterlimit:10;stroke-opacity:1;stroke-dasharray:none"
   d="m 388.521,559.944 0,7.999" /><path
   inkscape:connector-curvature="0"
   id="path50"
   style="fill:none;stroke:#000000;stroke-width:1.19988;stroke-linecap:butt;stroke-linejoin:miter;stroke-miterlimit:10;stroke-opacity:1;stroke-dasharray:none"
   d="m 79.9922,559.944 0,15.999" /><path
   inkscape:connector-curvature="0"
   id="path52"
   style="fill:none;stroke:#000000;stroke-width:1.19988;stroke-linecap:butt;stroke-linejoin:miter;stroke-miterlimit:10;stroke-opacity:1;stroke-dasharray:none"
   d="m 102.87,559.944 0,15.999" /><path
   inkscape:connector-curvature="0"
   id="path54"
   style="fill:none;stroke:#000000;stroke-width:1.19988;stroke-linecap:butt;stroke-linejoin:miter;stroke-miterlimit:10;stroke-opacity:1;stroke-dasharray:none"
   d="m 125.668,559.944 0,15.999" /><path
   inkscape:connector-curvature="0"
   id="path56"
   style="fill:none;stroke:#000000;stroke-width:1.19988;stroke-linecap:butt;stroke-linejoin:miter;stroke-miterlimit:10;stroke-opacity:1;stroke-dasharray:none"
   d="m 148.545,559.944 0,15.999" /><path
   inkscape:connector-curvature="0"
   id="path58"
   style="fill:none;stroke:#000000;stroke-width:1.19988;stroke-linecap:butt;stroke-linejoin:miter;stroke-miterlimit:10;stroke-opacity:1;stroke-dasharray:none"
   d="m 171.423,559.944 0,15.999" /><path
   inkscape:connector-curvature="0"
   id="path60"
   style="fill:none;stroke:#000000;stroke-width:1.19988;stroke-linecap:butt;stroke-linejoin:miter;stroke-miterlimit:10;stroke-opacity:1;stroke-dasharray:none"
   d="m 194.3,559.944 0,15.999" /><path
   inkscape:connector-curvature="0"
   id="path62"
   style="fill:none;stroke:#000000;stroke-width:1.19988;stroke-linecap:butt;stroke-linejoin:miter;stroke-miterlimit:10;stroke-opacity:1;stroke-dasharray:none"
   d="m 217.098,559.944 0,15.999" /><path
   inkscape:connector-curvature="0"
   id="path64"
   style="fill:none;stroke:#000000;stroke-width:1.19988;stroke-linecap:butt;stroke-linejoin:miter;stroke-miterlimit:10;stroke-opacity:1;stroke-dasharray:none"
   d="m 239.976,559.944 0,15.999" /><path
   inkscape:connector-curvature="0"
   id="path66"
   style="fill:none;stroke:#000000;stroke-width:1.19988;stroke-linecap:butt;stroke-linejoin:miter;stroke-miterlimit:10;stroke-opacity:1;stroke-dasharray:none"
   d="m 262.854,559.944 0,15.999" /><path
   inkscape:connector-curvature="0"
   id="path68"
   style="fill:none;stroke:#000000;stroke-width:1.19988;stroke-linecap:butt;stroke-linejoin:miter;stroke-miterlimit:10;stroke-opacity:1;stroke-dasharray:none"
   d="m 285.652,559.944 0,15.999" /><path
   inkscape:connector-curvature="0"
   id="path70"
   style="fill:none;stroke:#000000;stroke-width:1.19988;stroke-linecap:butt;stroke-linejoin:miter;stroke-miterlimit:10;stroke-opacity:1;stroke-dasharray:none"
   d="m 308.529,559.944 0,15.999" /><path
   inkscape:connector-curvature="0"
   id="path72"
   style="fill:none;stroke:#000000;stroke-width:1.19988;stroke-linecap:butt;stroke-linejoin:miter;stroke-miterlimit:10;stroke-opacity:1;stroke-dasharray:none"
   d="m 331.407,559.944 0,15.999" /><path
   inkscape:connector-curvature="0"
   id="path74"
   style="fill:none;stroke:#000000;stroke-width:1.19988;stroke-linecap:butt;stroke-linejoin:miter;stroke-miterlimit:10;stroke-opacity:1;stroke-dasharray:none"
   d="m 354.284,559.944 0,15.999" /><path
   inkscape:connector-curvature="0"
   id="path76"
   style="fill:none;stroke:#000000;stroke-width:1.19988;stroke-linecap:butt;stroke-linejoin:miter;stroke-miterlimit:10;stroke-opacity:1;stroke-dasharray:none"
   d="m 377.082,559.944 0,15.999" /><path
   inkscape:connector-curvature="0"
   id="path78"
   style="fill:none;stroke:#000000;stroke-width:1.19988;stroke-linecap:butt;stroke-linejoin:miter;stroke-miterlimit:10;stroke-opacity:1;stroke-dasharray:none"
   d="m 399.96,559.944 0,15.999" /><text
   transform="scale(1,-1)"
   id="text82"
   x="73.112503"
   y="-544.26599"><tspan
     style="font-size:11.19890022px;font-variant:normal;font-weight:normal;writing-mode:lr-tb;fill:#000000;fill-opacity:1;fill-rule:nonzero;stroke:none;font-family:Times;-inkscape-font-specification:Times-Roman"
     x="73.112503 78.711952 81.511673 96.150429 101.74988 104.54961 118.94814 124.54758 127.34731 141.8259 147.42535 150.22508 169.26309 187.90143 193.50087 196.3006 210.29913 215.89857 218.6983 233.33705 238.93649 241.73622 255.97458 261.57404 264.37375 279.09259 284.69202 287.49176 301.7301 307.32956 310.12927 324.68796 330.28738 333.08713 347.5657 353.16516 355.96487 370.3634 375.96286 378.76257 397.32083"
     y="-544.26599"
     sodipodi:role="line"
     id="tspan84">0.60.70.80.911.11.21.31.41.51.61.71.81.92</tspan></text>

<text
   transform="scale(1,-1)"
   id="text86"
   x="208.85851"
   y="-525.70782"><tspan
     style="font-size:22.39780045px;font-style:italic;font-variant:normal;font-weight:bold;writing-mode:lr-tb;fill:#000000;fill-opacity:1;fill-rule:nonzero;stroke:none;font-family:Times;-inkscape-font-specification:Times-BoldItalic"
     x="208.85851"
     y="-525.70782"
     id="tspan88">x</tspan></text>

<text
   transform="scale(1,-1)"
   id="text90"
   x="220.13741"
   y="-516.74884"><tspan
     style="font-size:15.83839989px;font-style:italic;font-variant:normal;font-weight:bold;writing-mode:lr-tb;fill:#000000;fill-opacity:1;fill-rule:nonzero;stroke:none;font-family:Times;-inkscape-font-specification:Times-BoldItalic"
     x="220.13741 230.70161 235.10469 243.0239 249.18503 257.10422 264.13647"
     y="-516.74884"
     sodipodi:role="line"
     id="tspan92">Bjorken</tspan></text>

<path
   inkscape:connector-curvature="0"
   id="path94"
   style="fill:none;stroke:#000000;stroke-width:1.19988;stroke-linecap:butt;stroke-linejoin:miter;stroke-miterlimit:10;stroke-opacity:1;stroke-dasharray:none"
   d="m 79.9922,559.944 0,223.977" /><path
   inkscape:connector-curvature="0"
   id="path96"
   style="fill:none;stroke:#000000;stroke-width:1.19988;stroke-linecap:butt;stroke-linejoin:miter;stroke-miterlimit:10;stroke-opacity:1;stroke-dasharray:none"
   d="m 79.9922,569.303 7.9988,0" /><path
   inkscape:connector-curvature="0"
   id="path98"
   style="fill:none;stroke:#000000;stroke-width:1.19988;stroke-linecap:butt;stroke-linejoin:miter;stroke-miterlimit:10;stroke-opacity:1;stroke-dasharray:none"
   d="m 79.9922,578.582 7.9988,0" /><path
   inkscape:connector-curvature="0"
   id="path100"
   style="fill:none;stroke:#000000;stroke-width:1.19988;stroke-linecap:butt;stroke-linejoin:miter;stroke-miterlimit:10;stroke-opacity:1;stroke-dasharray:none"
   d="m 79.9922,587.941 7.9988,0" /><path
   inkscape:connector-curvature="0"
   id="path102"
   style="fill:none;stroke:#000000;stroke-width:1.19988;stroke-linecap:butt;stroke-linejoin:miter;stroke-miterlimit:10;stroke-opacity:1;stroke-dasharray:none"
   d="m 79.9922,606.579 7.9988,0" /><path
   inkscape:connector-curvature="0"
   id="path104"
   style="fill:none;stroke:#000000;stroke-width:1.19988;stroke-linecap:butt;stroke-linejoin:miter;stroke-miterlimit:10;stroke-opacity:1;stroke-dasharray:none"
   d="m 79.9922,615.938 7.9988,0" /><path
   inkscape:connector-curvature="0"
   id="path106"
   style="fill:none;stroke:#000000;stroke-width:1.19988;stroke-linecap:butt;stroke-linejoin:miter;stroke-miterlimit:10;stroke-opacity:1;stroke-dasharray:none"
   d="m 79.9922,625.298 7.9988,0" /><path
   inkscape:connector-curvature="0"
   id="path108"
   style="fill:none;stroke:#000000;stroke-width:1.19988;stroke-linecap:butt;stroke-linejoin:miter;stroke-miterlimit:10;stroke-opacity:1;stroke-dasharray:none"
   d="m 79.9922,643.936 7.9988,0" /><path
   inkscape:connector-curvature="0"
   id="path110"
   style="fill:none;stroke:#000000;stroke-width:1.19988;stroke-linecap:butt;stroke-linejoin:miter;stroke-miterlimit:10;stroke-opacity:1;stroke-dasharray:none"
   d="m 79.9922,653.295 7.9988,0" /><path
   inkscape:connector-curvature="0"
   id="path112"
   style="fill:none;stroke:#000000;stroke-width:1.19988;stroke-linecap:butt;stroke-linejoin:miter;stroke-miterlimit:10;stroke-opacity:1;stroke-dasharray:none"
   d="m 79.9922,662.574 7.9988,0" /><path
   inkscape:connector-curvature="0"
   id="path114"
   style="fill:none;stroke:#000000;stroke-width:1.19988;stroke-linecap:butt;stroke-linejoin:miter;stroke-miterlimit:10;stroke-opacity:1;stroke-dasharray:none"
   d="m 79.9922,681.292 7.9988,0" /><path
   inkscape:connector-curvature="0"
   id="path116"
   style="fill:none;stroke:#000000;stroke-width:1.19988;stroke-linecap:butt;stroke-linejoin:miter;stroke-miterlimit:10;stroke-opacity:1;stroke-dasharray:none"
   d="m 79.9922,690.571 7.9988,0" /><path
   inkscape:connector-curvature="0"
   id="path118"
   style="fill:none;stroke:#000000;stroke-width:1.19988;stroke-linecap:butt;stroke-linejoin:miter;stroke-miterlimit:10;stroke-opacity:1;stroke-dasharray:none"
   d="m 79.9922,699.93 7.9988,0" /><path
   inkscape:connector-curvature="0"
   id="path120"
   style="fill:none;stroke:#000000;stroke-width:1.19988;stroke-linecap:butt;stroke-linejoin:miter;stroke-miterlimit:10;stroke-opacity:1;stroke-dasharray:none"
   d="m 79.9922,718.568 7.9988,0" /><path
   inkscape:connector-curvature="0"
   id="path122"
   style="fill:none;stroke:#000000;stroke-width:1.19988;stroke-linecap:butt;stroke-linejoin:miter;stroke-miterlimit:10;stroke-opacity:1;stroke-dasharray:none"
   d="m 79.9922,727.927 7.9988,0" /><path
   inkscape:connector-curvature="0"
   id="path124"
   style="fill:none;stroke:#000000;stroke-width:1.19988;stroke-linecap:butt;stroke-linejoin:miter;stroke-miterlimit:10;stroke-opacity:1;stroke-dasharray:none"
   d="m 79.9922,737.286 7.9988,0" /><path
   inkscape:connector-curvature="0"
   id="path126"
   style="fill:none;stroke:#000000;stroke-width:1.19988;stroke-linecap:butt;stroke-linejoin:miter;stroke-miterlimit:10;stroke-opacity:1;stroke-dasharray:none"
   d="m 79.9922,755.924 7.9988,0" /><path
   inkscape:connector-curvature="0"
   id="path128"
   style="fill:none;stroke:#000000;stroke-width:1.19988;stroke-linecap:butt;stroke-linejoin:miter;stroke-miterlimit:10;stroke-opacity:1;stroke-dasharray:none"
   d="m 79.9922,765.284 7.9988,0" /><path
   inkscape:connector-curvature="0"
   id="path130"
   style="fill:none;stroke:#000000;stroke-width:1.19988;stroke-linecap:butt;stroke-linejoin:miter;stroke-miterlimit:10;stroke-opacity:1;stroke-dasharray:none"
   d="m 79.9922,774.562 7.9988,0" /><path
   inkscape:connector-curvature="0"
   id="path132"
   style="fill:none;stroke:#000000;stroke-width:1.19988;stroke-linecap:butt;stroke-linejoin:miter;stroke-miterlimit:10;stroke-opacity:1;stroke-dasharray:none"
   d="m 79.9922,559.944 15.998,0" /><path
   inkscape:connector-curvature="0"
   id="path134"
   style="fill:none;stroke:#000000;stroke-width:1.19988;stroke-linecap:butt;stroke-linejoin:miter;stroke-miterlimit:10;stroke-opacity:1;stroke-dasharray:none"
   d="m 79.9922,597.3 15.998,0" /><path
   inkscape:connector-curvature="0"
   id="path136"
   style="fill:none;stroke:#000000;stroke-width:1.19988;stroke-linecap:butt;stroke-linejoin:miter;stroke-miterlimit:10;stroke-opacity:1;stroke-dasharray:none"
   d="m 79.9922,634.577 15.998,0" /><path
   inkscape:connector-curvature="0"
   id="path138"
   style="fill:none;stroke:#000000;stroke-width:1.19988;stroke-linecap:butt;stroke-linejoin:miter;stroke-miterlimit:10;stroke-opacity:1;stroke-dasharray:none"
   d="m 79.9922,671.933 15.998,0" /><path
   inkscape:connector-curvature="0"
   id="path140"
   style="fill:none;stroke:#000000;stroke-width:1.19988;stroke-linecap:butt;stroke-linejoin:miter;stroke-miterlimit:10;stroke-opacity:1;stroke-dasharray:none"
   d="m 79.9922,709.289 15.998,0" /><path
   inkscape:connector-curvature="0"
   id="path142"
   style="fill:none;stroke:#000000;stroke-width:1.19988;stroke-linecap:butt;stroke-linejoin:miter;stroke-miterlimit:10;stroke-opacity:1;stroke-dasharray:none"
   d="m 79.9922,746.565 15.998,0" /><text
   transform="scale(1,-1)"
   id="text146"
   x="66.713303"
   y="-556.18402"><tspan
     style="font-size:11.19890022px;font-variant:normal;font-weight:normal;writing-mode:lr-tb;fill:#000000;fill-opacity:1;fill-rule:nonzero;stroke:none;font-family:Times;-inkscape-font-specification:Times-Roman"
     x="66.713303"
     y="-556.18402"
     id="tspan148">0</tspan><tspan
     style="font-size:11.19890022px;font-variant:normal;font-weight:normal;writing-mode:lr-tb;fill:#000000;fill-opacity:1;fill-rule:nonzero;stroke:none;font-family:Times;-inkscape-font-specification:Times-Roman"
     x="59.274239 64.873688 67.673416"
     y="-593.54028"
     sodipodi:role="line"
     id="tspan150">0.1</tspan><tspan
     style="font-size:11.19890022px;font-variant:normal;font-weight:normal;writing-mode:lr-tb;fill:#000000;fill-opacity:1;fill-rule:nonzero;stroke:none;font-family:Times;-inkscape-font-specification:Times-Roman"
     x="58.314083 63.913532 66.713257"
     y="-630.89661"
     sodipodi:role="line"
     id="tspan152">0.2</tspan><tspan
     style="font-size:11.19890022px;font-variant:normal;font-weight:normal;writing-mode:lr-tb;fill:#000000;fill-opacity:1;fill-rule:nonzero;stroke:none;font-family:Times;-inkscape-font-specification:Times-Roman"
     x="58.794163 64.393616 67.193336"
     y="-668.17279"
     sodipodi:role="line"
     id="tspan154">0.3</tspan><tspan
     style="font-size:11.19890022px;font-variant:normal;font-weight:normal;writing-mode:lr-tb;fill:#000000;fill-opacity:1;fill-rule:nonzero;stroke:none;font-family:Times;-inkscape-font-specification:Times-Roman"
     x="58.314083 63.913532 66.713257"
     y="-705.52911"
     sodipodi:role="line"
     id="tspan156">0.4</tspan><tspan
     style="font-size:11.19890022px;font-variant:normal;font-weight:normal;writing-mode:lr-tb;fill:#000000;fill-opacity:1;fill-rule:nonzero;stroke:none;font-family:Times;-inkscape-font-specification:Times-Roman"
     x="58.794163 64.393616 67.193336"
     y="-742.88538"
     sodipodi:role="line"
     id="tspan158">0.5</tspan></text>

<text
   transform="matrix(0,1,1,0,0,0)"
   id="text160"
   x="661.69397"
   y="31.196899"><tspan
     style="font-size:22.39780045px;font-style:italic;font-variant:normal;font-weight:bold;writing-mode:lr-tb;fill:#000000;fill-opacity:1;fill-rule:nonzero;stroke:none;font-family:Times;-inkscape-font-specification:Times-BoldItalic"
     x="661.69397"
     y="31.196899"
     id="tspan162">f</tspan></text>

<text
   transform="matrix(0,1,1,0,0,0)"
   id="text164"
   x="669.13342"
   y="40.15588"><tspan
     style="font-size:15.83839989px;font-style:italic;font-variant:normal;font-weight:bold;writing-mode:lr-tb;fill:#000000;fill-opacity:1;fill-rule:nonzero;stroke:none;font-family:Times;-inkscape-font-specification:Times-BoldItalic"
     x="669.13342 677.05267 681.45575"
     y="40.15588"
     sodipodi:role="line"
     id="tspan166">dil</tspan></text>

<path
   inkscape:connector-curvature="0"
   id="path168"
   style="fill:none;stroke:#000000;stroke-width:1.19988;stroke-linecap:butt;stroke-linejoin:miter;stroke-miterlimit:10;stroke-opacity:1;stroke-dasharray:none"
   d="m 79.9922,559.944 319.9678,0" /><path
   inkscape:connector-curvature="0"
   id="path170"
   style="fill:none;stroke:#000000;stroke-width:1.19988;stroke-linecap:butt;stroke-linejoin:miter;stroke-miterlimit:10;stroke-opacity:1;stroke-dasharray:none"
   d="m 79.9922,559.944 319.9678,0" /><path
   inkscape:connector-curvature="0"
   id="path172"
   style="fill:none;stroke:#000000;stroke-width:1.19988;stroke-linecap:butt;stroke-linejoin:miter;stroke-miterlimit:10;stroke-opacity:1;stroke-dasharray:none"
   d="m 79.9922,559.944 319.968,0 0,223.977 -319.968,0 0,-223.977 z" /><text
   transform="scale(1,-1)"
   id="text176"
   x="257.41086"
   y="-732.96313"
   style="font-size:14.39999962px;font-style:normal;font-variant:normal;font-weight:500;font-stretch:normal;text-align:start;line-height:125%;writing-mode:lr-tb;text-anchor:start;font-family:CMU Serif;-inkscape-font-specification:CMU Serif Medium"
   sodipodi:linespacing="125%"><tspan
     style="font-size:14.39999962px;font-style:normal;font-variant:normal;font-weight:500;font-stretch:normal;text-align:start;line-height:125%;writing-mode:lr-tb;text-anchor:start;fill:#000000;fill-opacity:1;fill-rule:nonzero;stroke:none;font-family:CMU Serif;-inkscape-font-specification:CMU Serif Medium"
     sodipodi:role="line"
     id="tspan178"
     x="257.41086"
     y="-732.96313">SHMS (<tspan
   style="font-style:italic"
   id="tspan3091">Q</tspan><tspan
   style="font-size:52.00042725%;baseline-shift:super"
   id="tspan3093"> 2</tspan>=0.3 GeV<tspan
   style="font-size:52.00042725%;baseline-shift:super"
   id="tspan3095">2</tspan>)</tspan></text>

<path
   inkscape:connector-curvature="0"
   id="path180"
   style="fill:none;stroke:#0000ff;stroke-width:1.19988;stroke-linecap:butt;stroke-linejoin:miter;stroke-miterlimit:10;stroke-opacity:1;stroke-dasharray:1.19988002, 1.19988002;stroke-dashoffset:0"
   d="m 229.334,735.602 24.077,0" /><text
   transform="scale(1,-1)"
   id="text184"
   x="257.41086"
   y="-714.72412"
   style="font-size:14.39999962px;font-style:normal;font-variant:normal;font-weight:500;font-stretch:normal;text-align:start;line-height:125%;writing-mode:lr-tb;text-anchor:start;font-family:CMU Serif;-inkscape-font-specification:CMU Serif Medium"
   sodipodi:linespacing="125%"><tspan
     style="font-size:14.39999962px;font-style:normal;font-variant:normal;font-weight:500;font-stretch:normal;text-align:start;line-height:125%;writing-mode:lr-tb;text-anchor:start;fill:#000000;fill-opacity:1;fill-rule:nonzero;stroke:none;font-family:CMU Serif;-inkscape-font-specification:CMU Serif Medium"
     sodipodi:role="line"
     id="tspan186"
     x="257.41086"
     y="-714.72412">HMS   (<tspan
   style="font-style:italic"
   id="tspan3089">Q</tspan><tspan
   style="font-size:52.00042725%;baseline-shift:super"
   id="tspan3085"> 2</tspan>=0.3 GeV<tspan
   style="font-size:52.00042725%;baseline-shift:super"
   id="tspan3087">2</tspan>)</tspan></text>

<path
   inkscape:connector-curvature="0"
   id="path188"
   style="fill:none;stroke:#ff0000;stroke-width:1.19988;stroke-linecap:butt;stroke-linejoin:miter;stroke-miterlimit:10;stroke-opacity:1;stroke-dasharray:1.19988002, 1.19988002;stroke-dashoffset:0"
   d="m 229.334,718.084 24.077,0" /><path
   inkscape:connector-curvature="0"
   id="path16-7"
   style="fill:none;stroke:#0000ff;stroke-width:1.20000005;stroke-linecap:butt;stroke-linejoin:miter;stroke-miterlimit:10;stroke-opacity:1;stroke-dasharray:3.6, 3.6;stroke-dashoffset:0"
   d="m 79.9121,641.936 0.0801,-0.24 2.3195,-6 2.2399,-5.919 2.3199,-4.879 2.2394,-4.48 2.32,-2.96 2.2398,-3.36 2.3195,-1.519 2.32,-1.84 2.2398,-0.8 2.32,-1.12 2.239,0.8 2.32,-0.4 2.24,1.84 2.32,-0.32 2.32,2.959 2.239,0.4 2.32,4.08 2.24,2.24 2.32,4.48 2.24,2.639 2.319,6.72 2.32,3.679 2.24,6.4 2.319,8.559 2.24,6.319 2.32,9.759 2.24,5.6 2.32,10.398 2.319,8.64 2.24,6.319 2.32,10.799 2.24,10.479 2.32,5.599 2.239,7.12 2.32,6.719 2.32,4.479 2.239,4.08 2.32,2.64 2.24,0.72 2.32,0.72 2.239,-1.84 2.32,-2.96 2.32,-2.24 2.24,-5.279 2.32,-5.92 2.24,-6.399 2.319,-4.799 2.24,-5.6 2.32,-9.759 2.319,4.16 2.24,-6.4 2.32,-5.919 2.24,-6.719 2.32,-6.4 2.239,-5.199 2.32,-6.319 2.32,-4.16 2.24,-5.2 2.32,-4.079 2.239,-3.76 2.32,-4.48 2.24,-4.079 2.32,-4.16 2.319,-4.079 2.24,-3.76 2.32,-2.959 2.24,-2.96 2.319,-2.64 2.24,-2.24 2.32,-2.239 2.32,-2.24 2.24,-1.12 2.319,-1.84 2.24,-1.12 c 19.89479,-15.61012 41.75183,-21.67395 66.314,-22.798 l 2.239,-0.24 2.32,0 2.32,0.08 2.24,-0.08 2.319,-0.079 2.24,0.159 2.32,0 2.239,-0.08 2.32,-0.079 2.32,0.159 9.119,0 2.24,-0.08 2.32,0 2.319,0.08 18.239,0 2.32,-0.08 2.239,0.08 15.999,0 2.319,0.08"
   sodipodi:nodetypes="cccccccccccccccccccccccccccccccccccccccccccccccccccccccccccccccccccccccccccccccccccccccccccccccc" /><text
   y="-750.56311"
   x="257.41086"
   id="text3331"
   transform="scale(1,-1)"
   style="font-size:14.39999962px;font-style:normal;font-variant:normal;font-weight:500;font-stretch:normal;text-align:start;line-height:125%;writing-mode:lr-tb;text-anchor:start;font-family:CMU Serif;-inkscape-font-specification:CMU Serif Medium"
   sodipodi:linespacing="125%"><tspan
     y="-750.56311"
     x="257.41086"
     id="tspan3333"
     sodipodi:role="line"
     style="font-size:14.39999962px;font-style:normal;font-variant:normal;font-weight:500;font-stretch:normal;text-align:start;line-height:125%;writing-mode:lr-tb;text-anchor:start;fill:#000000;fill-opacity:1;fill-rule:nonzero;stroke:none;font-family:CMU Serif;-inkscape-font-specification:CMU Serif Medium">SHMS (<tspan
   style="font-style:italic"
   id="tspan3099">Q</tspan><tspan
   style="font-size:52.00042725%;baseline-shift:super"
   id="tspan3097"> 2</tspan>=0.7 GeV<tspan
   style="font-size:52.00042725%;baseline-shift:super"
   id="tspan3101">2</tspan>)</tspan></text>

<path
   d="m 229.334,753.202 24.077,0"
   style="fill:none;stroke:#0000ff;stroke-width:1.20000005;stroke-linecap:butt;stroke-linejoin:miter;stroke-miterlimit:10;stroke-opacity:1;stroke-dasharray:3.6, 3.6;stroke-dashoffset:0"
   id="path3339"
   inkscape:connector-curvature="0" /><path
   inkscape:connector-curvature="0"
   id="path16-70"
   style="fill:none;stroke:#0000ff;stroke-width:1.19993992;stroke-linecap:butt;stroke-linejoin:miter;stroke-miterlimit:10;stroke-opacity:1;stroke-dasharray:none;stroke-dashoffset:0"
   d="m 79.9121,659.214 0.0801,0 2.3195,1.92 2.2399,2.24 2.3199,2.959 2.2394,2.96 2.32,3.04 2.2398,2.96 2.3195,2.639 2.32,1.44 2.2398,0.8 2.32,-1.12 2.239,-1.92 2.32,-3.679 2.24,-4.48 2.32,-5.599 2.32,-6 2.239,-6.319 2.32,-5.6 2.24,-5.999 2.32,-4.079 2.24,-4.16 2.319,-2.56 2.32,-1.12 2.24,-0.799 2.319,1.519 2.24,1.84 2.32,4.16 2.24,4.479 2.32,7.839 2.319,5.2 2.24,12.718 2.32,9.68 2.24,13.038 2.32,10.879 2.239,11.199 2.32,10.399 2.32,11.199 2.239,7.519 2.32,6.319 2.24,3.36 2.32,1.52 2.239,-0.8 2.32,-2.96 2.32,-4.879 2.24,-6.32 2.32,-7.439 2.24,-8.639 2.319,-8.559 2.24,-6.72 2.32,-11.598 2.319,-7.439 2.24,-8.959 2.32,-7.44 2.24,-6.399 2.32,-6.32 2.239,-5.999 2.32,-5.599 2.32,-4.48 2.24,-5.199 2.32,-4.48 2.239,-4.479 2.32,-3.76 2.24,-3.36 2.32,-2.96 2.319,-2.639 2.24,-2.24 2.32,-1.84 2.24,-1.52 2.319,-1.12 c 10.79978,-6.57344 22.97068,-9.06533 38.877,-9.839 l 2.239,-0.08 2.32,-0.24 2.24,0.24 2.32,0.24 2.24,-0.08 2.319,-0.239 2.32,0.079 4.559,0 2.24,0.08 2.32,0 2.24,-0.08 2.32,0.16 2.319,0.08 2.24,-0.16 4.56,0 2.32,-0.08 2.239,0.08 2.32,-0.08 4.56,0 2.319,0.08 2.24,0 2.32,-0.08 2.239,0.16 2.32,-0.16 2.32,0.08 2.24,-0.08 2.32,-0.079 2.24,0.239 2.319,0 2.24,-0.08 11.439,0 2.32,0.08 2.239,-0.08 2.32,-0.08 4.56,0 2.32,0.08 2.239,0.08 2.32,0 2.24,-0.08 2.32,-0.08 2.319,0 2.24,0.16 2.32,-0.08 2.24,0 2.319,0.08"
   sodipodi:nodetypes="cccccccccccccccccccccccccccccccccccccccccccccccccccccccccccccccccccccccccccccccccccccccccccccccccccccccccccccccccccc" /><text
   transform="scale(1,-1)"
   id="text4116"
   x="257.41086"
   y="-768.16309"
   style="font-size:14.39999962px;font-style:normal;font-variant:normal;font-weight:500;font-stretch:normal;text-align:start;line-height:125%;writing-mode:lr-tb;text-anchor:start;font-family:CMU Serif;-inkscape-font-specification:CMU Serif Medium"
   sodipodi:linespacing="125%"><tspan
     style="font-size:14.39999962px;font-style:normal;font-variant:normal;font-weight:500;font-stretch:normal;text-align:start;line-height:125%;writing-mode:lr-tb;text-anchor:start;fill:#000000;fill-opacity:1;fill-rule:nonzero;stroke:none;font-family:CMU Serif;-inkscape-font-specification:CMU Serif Medium"
     sodipodi:role="line"
     id="tspan4118"
     x="257.41086"
     y="-768.16309">SHMS (<tspan
   style="font-style:italic"
   id="tspan3105">Q</tspan><tspan
   style="font-size:52.00042725%;baseline-shift:super"
   id="tspan3103"> 2</tspan>=1.5 GeV<tspan
   style="font-size:52.00042725%;baseline-shift:super"
   id="tspan3107">2</tspan>)</tspan></text>

<path
   inkscape:connector-curvature="0"
   id="path4124"
   style="fill:none;stroke:#0000ff;stroke-width:1.19993997;stroke-linecap:butt;stroke-linejoin:miter;stroke-miterlimit:10;stroke-opacity:1;stroke-dasharray:none;stroke-dashoffset:0"
   d="m 229.334,770.802 24.077,0" /></g></svg>