<?xml version="1.0" encoding="UTF-8" standalone="no"?>
<!-- Created with Inkscape (http://www.inkscape.org/) -->

<svg
   xmlns:dc="http://purl.org/dc/elements/1.1/"
   xmlns:cc="http://creativecommons.org/ns#"
   xmlns:rdf="http://www.w3.org/1999/02/22-rdf-syntax-ns#"
   xmlns:svg="http://www.w3.org/2000/svg"
   xmlns="http://www.w3.org/2000/svg"
   xmlns:sodipodi="http://sodipodi.sourceforge.net/DTD/sodipodi-0.dtd"
   xmlns:inkscape="http://www.inkscape.org/namespaces/inkscape"
   id="svg2"
   version="1.1"
   inkscape:version="0.48.4 r9939"
   width="1500"
   height="1000"
   xml:space="preserve"
   sodipodi:docname="Pzz_30_q2_15_Azz_w_misak.svg"><metadata
     id="metadata8"><rdf:RDF><cc:Work
         rdf:about=""><dc:format>image/svg+xml</dc:format><dc:type
           rdf:resource="http://purl.org/dc/dcmitype/StillImage" /><dc:title /></cc:Work></rdf:RDF></metadata><defs
     id="defs6"><clipPath
       clipPathUnits="userSpaceOnUse"
       id="clipPath206"><path
         inkscape:connector-curvature="0"
         d="m 822.5,1105 0,3942.5 4395,0 0,-3942.5 -4395,0 z"
         id="path208-4" /></clipPath></defs><sodipodi:namedview
     pagecolor="#ffffff"
     bordercolor="#666666"
     borderopacity="1"
     objecttolerance="10"
     gridtolerance="10"
     guidetolerance="10"
     inkscape:pageopacity="0"
     inkscape:pageshadow="2"
     inkscape:window-width="1366"
     inkscape:window-height="745"
     id="namedview4"
     showgrid="false"
     inkscape:zoom="1.494934"
     inkscape:cx="892.07553"
     inkscape:cy="822.85775"
     inkscape:window-x="-8"
     inkscape:window-y="-8"
     inkscape:window-maximized="1"
     inkscape:current-layer="g3170" /><g
     id="g10"
     inkscape:groupmode="layer"
     inkscape:label="ink_ext_XXXXXX"
     transform="matrix(1.25,0,0,-1.25,0,1000)"><path
   inkscape:connector-curvature="0"
   id="path304-9"
   style="fill:#ff00ff;fill-opacity:1;fill-rule:nonzero;stroke:none"
   d="m 514.269,562.88899 0,2.88 22.797,0 0,-2.88 0,0.88 22.878,0 0,-0.88 -0.24,0 0,1.44 23.118,0 0,-1.44 0,0.32 22.798,0 0,-0.32 0,3.36 22.877,0 0,-3.36 0,8.799 22.878,0 0,-8.799 0,14.319 22.878,0 0,-14.319 0,17.838 22.797,0 0,-17.838 0,17.918 22.878,0 0,-17.918 0,15.039 22.878,0 0,-15.039 0,10.079 22.798,0 0,-10.079"
   sodipodi:nodetypes="ccccccccccccccccccccccccccccccccccc" /><path
   inkscape:connector-curvature="0"
   id="path210-4"
   style="fill:none;stroke:#0000ff;stroke-width:1.84000000000000008;stroke-linecap:butt;stroke-linejoin:miter;stroke-miterlimit:10;stroke-opacity:1;stroke-dasharray:none"
   d="m 479.80736,741.53738 5.62388,0.9068 5.83218,0.4534 6.66534,0.30227 2.91609,-0.30227 1.66634,-0.30226 11.45606,-5.74308 5.2073,-1.66246 3.74926,-0.75567 2.4995,-0.30227 4.58243,-0.15113 3.33267,0.30227 2.49951,0.75566 1.04146,0.4534 2.08292,1.20907 2.4995,1.8136 5.2073,4.53401 1.66634,1.3602 4.16584,2.267 3.54097,1.8136 3.74925,1.20907 3.95755,0.9068 3.74926,0.30226 3.74926,-0.15113 3.95754,-0.60453 3.33268,-0.9068 3.33267,-1.20907 0.83317,-0.4534 3.74926,-2.11587 3.12438,-2.267 2.91608,-2.56927 1.66634,-1.3602 3.12438,-3.47607 3.12438,-3.77834 3.12438,-4.38287 2.08292,-2.87153 2.91609,-4.98741 3.54097,-6.19647 3.95755,-7.55667 1.04146,-1.8136 3.33267,-6.95214 4.58242,-10.42821 3.54097,-7.85894 11.45606,-27.05288 7.9151,-18.74055 2.91609,-6.04534 0.41658,-1.05793 3.74926,-7.25441 2.7078,-5.13854 2.4995,-4.0806 2.49951,-3.92947 2.91608,-3.92947 2.91609,-3.1738 2.29122,-2.11587 2.08292,-1.8136 1.24975,-0.75567 2.4995,-1.05793 2.29122,-0.60454 2.4995,-0.15113 2.08292,0.30227 2.08292,0.75566 2.29121,1.20907 2.29122,1.8136 2.4995,2.41814 2.7078,3.1738 1.66633,2.267 2.29122,3.47607 2.70779,4.23174 2.91609,5.59194 3.54097,7.2544 2.70779,6.04534 3.54097,8.1612 4.16584,10.57935 1.04146,2.56927 3.33267,8.76574 5.4156,15.56674 2.70779,7.70781 11.45606,32.49369 11.45607,32.34256" /><path
   inkscape:connector-curvature="0"
   id="path212-8"
   style="fill:none;stroke:#ff0000;stroke-width:1.84;stroke-linecap:butt;stroke-linejoin:miter;stroke-miterlimit:10;stroke-opacity:1;stroke-dasharray:none"
   d="m 479.80736,742.14191 7.08193,0.45341 4.37413,0 7.08193,0.15113 2.91609,-0.30227 1.24975,-0.30227 11.45606,-5.74307 4.37413,-1.51133 3.74926,-1.05794 3.33267,-0.4534 6.04047,-0.60453 2.7078,0.15113 2.08292,0.4534 0.62488,0.30227 1.87463,1.05794 2.29121,1.8136 5.83218,5.59193 1.45804,1.05794 5.41559,3.6272 3.12438,1.66247 2.91609,1.20907 3.12438,0.9068 3.74926,0.60453 4.58243,0.30227 3.95754,-0.30227 3.54097,-0.60453 3.95755,-1.05794 3.95755,-1.51133 3.33267,-1.66247 3.33267,-2.11587 0.83317,-0.60453 3.74926,-3.02267 3.33267,-2.87154 3.33267,-3.47606 1.04146,-0.90681 3.12438,-3.92947 3.74926,-4.83627 4.58243,-6.3476 3.54096,-5.59194 5.62389,-9.37027 2.29121,-3.6272 4.16584,-7.55668 7.29022,-12.84634 11.24777,-20.70528 6.66535,-11.03274 3.54096,-5.59194 1.24976,-2.11587 3.95754,-5.59194 3.12439,-4.0806 2.91608,-3.77834 1.45805,-1.51133 3.74926,-3.77834 2.91608,-2.7204 2.91609,-2.11587 1.87463,-1.20907 3.12438,-1.51133 2.91609,-1.20907 2.91609,-0.60453 2.4995,-0.30227 2.91609,0 3.12438,0.60453 3.12438,0.90681 2.29122,0.9068 2.91609,1.66246 3.33267,2.26701 3.54096,2.87153 1.66634,1.3602 3.33267,3.32494 3.54097,4.0806 4.58242,5.44081 3.74926,4.9874 4.58242,6.801 3.12438,4.68514 4.58243,7.25441 4.79072,8.01007 2.08292,3.6272" /><path
   inkscape:connector-curvature="0"
   id="path306"
   style="fill:none;stroke:#000000;stroke-width:1.19988;stroke-linecap:butt;stroke-linejoin:miter;stroke-miterlimit:10;stroke-opacity:1;stroke-dasharray:none"
   d="m 479.952,559.944 319.968,0" /><path
   inkscape:connector-curvature="0"
   id="path308"
   style="fill:none;stroke:#000000;stroke-width:1.19988;stroke-linecap:butt;stroke-linejoin:miter;stroke-miterlimit:10;stroke-opacity:1;stroke-dasharray:none"
   d="m 491.391,559.944 0,7.999" /><path
   inkscape:connector-curvature="0"
   id="path310"
   style="fill:none;stroke:#000000;stroke-width:1.19988;stroke-linecap:butt;stroke-linejoin:miter;stroke-miterlimit:10;stroke-opacity:1;stroke-dasharray:none"
   d="m 514.269,559.944 0,7.999" /><path
   inkscape:connector-curvature="0"
   id="path312"
   style="fill:none;stroke:#000000;stroke-width:1.19988;stroke-linecap:butt;stroke-linejoin:miter;stroke-miterlimit:10;stroke-opacity:1;stroke-dasharray:none"
   d="m 537.066,559.944 0,7.999" /><path
   inkscape:connector-curvature="0"
   id="path314"
   style="fill:none;stroke:#000000;stroke-width:1.19988;stroke-linecap:butt;stroke-linejoin:miter;stroke-miterlimit:10;stroke-opacity:1;stroke-dasharray:none"
   d="m 559.944,559.944 0,7.999" /><path
   inkscape:connector-curvature="0"
   id="path316"
   style="fill:none;stroke:#000000;stroke-width:1.19988;stroke-linecap:butt;stroke-linejoin:miter;stroke-miterlimit:10;stroke-opacity:1;stroke-dasharray:none"
   d="m 582.822,559.944 0,7.999" /><path
   inkscape:connector-curvature="0"
   id="path318"
   style="fill:none;stroke:#000000;stroke-width:1.19988;stroke-linecap:butt;stroke-linejoin:miter;stroke-miterlimit:10;stroke-opacity:1;stroke-dasharray:none"
   d="m 605.62,559.944 0,7.999" /><path
   inkscape:connector-curvature="0"
   id="path320"
   style="fill:none;stroke:#000000;stroke-width:1.19988;stroke-linecap:butt;stroke-linejoin:miter;stroke-miterlimit:10;stroke-opacity:1;stroke-dasharray:none"
   d="m 628.497,559.944 0,7.999" /><path
   inkscape:connector-curvature="0"
   id="path322"
   style="fill:none;stroke:#000000;stroke-width:1.19988;stroke-linecap:butt;stroke-linejoin:miter;stroke-miterlimit:10;stroke-opacity:1;stroke-dasharray:none"
   d="m 651.375,559.944 0,7.999" /><path
   inkscape:connector-curvature="0"
   id="path324"
   style="fill:none;stroke:#000000;stroke-width:1.19988;stroke-linecap:butt;stroke-linejoin:miter;stroke-miterlimit:10;stroke-opacity:1;stroke-dasharray:none"
   d="m 674.253,559.944 0,7.999" /><path
   inkscape:connector-curvature="0"
   id="path326"
   style="fill:none;stroke:#000000;stroke-width:1.19988;stroke-linecap:butt;stroke-linejoin:miter;stroke-miterlimit:10;stroke-opacity:1;stroke-dasharray:none"
   d="m 697.05,559.944 0,7.999" /><path
   inkscape:connector-curvature="0"
   id="path328"
   style="fill:none;stroke:#000000;stroke-width:1.19988;stroke-linecap:butt;stroke-linejoin:miter;stroke-miterlimit:10;stroke-opacity:1;stroke-dasharray:none"
   d="m 719.928,559.944 0,7.999" /><path
   inkscape:connector-curvature="0"
   id="path330"
   style="fill:none;stroke:#000000;stroke-width:1.19988;stroke-linecap:butt;stroke-linejoin:miter;stroke-miterlimit:10;stroke-opacity:1;stroke-dasharray:none"
   d="m 742.806,559.944 0,7.999" /><path
   inkscape:connector-curvature="0"
   id="path332"
   style="fill:none;stroke:#000000;stroke-width:1.19988;stroke-linecap:butt;stroke-linejoin:miter;stroke-miterlimit:10;stroke-opacity:1;stroke-dasharray:none"
   d="m 765.604,559.944 0,7.999" /><path
   inkscape:connector-curvature="0"
   id="path334"
   style="fill:none;stroke:#000000;stroke-width:1.19988;stroke-linecap:butt;stroke-linejoin:miter;stroke-miterlimit:10;stroke-opacity:1;stroke-dasharray:none"
   d="m 788.481,559.944 0,7.999" /><path
   inkscape:connector-curvature="0"
   id="path336"
   style="fill:none;stroke:#000000;stroke-width:1.19988;stroke-linecap:butt;stroke-linejoin:miter;stroke-miterlimit:10;stroke-opacity:1;stroke-dasharray:none"
   d="m 479.952,559.944 0,15.999" /><path
   inkscape:connector-curvature="0"
   id="path338"
   style="fill:none;stroke:#000000;stroke-width:1.19988;stroke-linecap:butt;stroke-linejoin:miter;stroke-miterlimit:10;stroke-opacity:1;stroke-dasharray:none"
   d="m 502.83,559.944 0,15.999" /><path
   inkscape:connector-curvature="0"
   id="path340"
   style="fill:none;stroke:#000000;stroke-width:1.19988;stroke-linecap:butt;stroke-linejoin:miter;stroke-miterlimit:10;stroke-opacity:1;stroke-dasharray:none"
   d="m 525.627,559.944 0,15.999" /><path
   inkscape:connector-curvature="0"
   id="path342"
   style="fill:none;stroke:#000000;stroke-width:1.19988;stroke-linecap:butt;stroke-linejoin:miter;stroke-miterlimit:10;stroke-opacity:1;stroke-dasharray:none"
   d="m 548.505,559.944 0,15.999" /><path
   inkscape:connector-curvature="0"
   id="path344"
   style="fill:none;stroke:#000000;stroke-width:1.19988;stroke-linecap:butt;stroke-linejoin:miter;stroke-miterlimit:10;stroke-opacity:1;stroke-dasharray:none"
   d="m 571.383,559.944 0,15.999" /><path
   inkscape:connector-curvature="0"
   id="path346"
   style="fill:none;stroke:#000000;stroke-width:1.19988;stroke-linecap:butt;stroke-linejoin:miter;stroke-miterlimit:10;stroke-opacity:1;stroke-dasharray:none"
   d="m 594.261,559.944 0,15.999" /><path
   inkscape:connector-curvature="0"
   id="path348"
   style="fill:none;stroke:#000000;stroke-width:1.19988;stroke-linecap:butt;stroke-linejoin:miter;stroke-miterlimit:10;stroke-opacity:1;stroke-dasharray:none"
   d="m 617.058,559.944 0,15.999" /><path
   inkscape:connector-curvature="0"
   id="path350"
   style="fill:none;stroke:#000000;stroke-width:1.19988;stroke-linecap:butt;stroke-linejoin:miter;stroke-miterlimit:10;stroke-opacity:1;stroke-dasharray:none"
   d="m 639.936,559.944 0,15.999" /><path
   inkscape:connector-curvature="0"
   id="path352"
   style="fill:none;stroke:#000000;stroke-width:1.19988;stroke-linecap:butt;stroke-linejoin:miter;stroke-miterlimit:10;stroke-opacity:1;stroke-dasharray:none"
   d="m 662.814,559.944 0,15.999" /><path
   inkscape:connector-curvature="0"
   id="path354"
   style="fill:none;stroke:#000000;stroke-width:1.19988;stroke-linecap:butt;stroke-linejoin:miter;stroke-miterlimit:10;stroke-opacity:1;stroke-dasharray:none"
   d="m 685.611,559.944 0,15.999" /><path
   inkscape:connector-curvature="0"
   id="path356"
   style="fill:none;stroke:#000000;stroke-width:1.19988;stroke-linecap:butt;stroke-linejoin:miter;stroke-miterlimit:10;stroke-opacity:1;stroke-dasharray:none"
   d="m 708.489,559.944 0,15.999" /><path
   inkscape:connector-curvature="0"
   id="path358"
   style="fill:none;stroke:#000000;stroke-width:1.19988;stroke-linecap:butt;stroke-linejoin:miter;stroke-miterlimit:10;stroke-opacity:1;stroke-dasharray:none"
   d="m 731.367,559.944 0,15.999" /><path
   inkscape:connector-curvature="0"
   id="path360"
   style="fill:none;stroke:#000000;stroke-width:1.19988;stroke-linecap:butt;stroke-linejoin:miter;stroke-miterlimit:10;stroke-opacity:1;stroke-dasharray:none"
   d="m 754.245,559.944 0,15.999" /><path
   inkscape:connector-curvature="0"
   id="path362"
   style="fill:none;stroke:#000000;stroke-width:1.19988;stroke-linecap:butt;stroke-linejoin:miter;stroke-miterlimit:10;stroke-opacity:1;stroke-dasharray:none"
   d="m 777.042,559.944 0,15.999" /><path
   inkscape:connector-curvature="0"
   id="path364"
   style="fill:none;stroke:#000000;stroke-width:1.19988;stroke-linecap:butt;stroke-linejoin:miter;stroke-miterlimit:10;stroke-opacity:1;stroke-dasharray:none"
   d="m 799.92,559.944 0,15.999" /><path
   inkscape:connector-curvature="0"
   id="path380"
   style="fill:none;stroke:#000000;stroke-width:1.19988;stroke-linecap:butt;stroke-linejoin:miter;stroke-miterlimit:10;stroke-opacity:1;stroke-dasharray:none"
   d="m 479.952,559.944 0,223.977" /><path
   inkscape:connector-curvature="0"
   id="path382"
   style="fill:none;stroke:#000000;stroke-width:1.19988;stroke-linecap:butt;stroke-linejoin:miter;stroke-miterlimit:10;stroke-opacity:1;stroke-dasharray:none"
   d="m 479.952,566.903 7.999,0" /><path
   inkscape:connector-curvature="0"
   id="path384"
   style="fill:none;stroke:#000000;stroke-width:1.19988;stroke-linecap:butt;stroke-linejoin:miter;stroke-miterlimit:10;stroke-opacity:1;stroke-dasharray:none"
   d="m 479.952,580.902 7.999,0" /><path
   inkscape:connector-curvature="0"
   id="path386"
   style="fill:none;stroke:#000000;stroke-width:1.19988;stroke-linecap:butt;stroke-linejoin:miter;stroke-miterlimit:10;stroke-opacity:1;stroke-dasharray:none"
   d="m 479.952,587.941 7.999,0" /><path
   inkscape:connector-curvature="0"
   id="path388"
   style="fill:none;stroke:#000000;stroke-width:1.19988;stroke-linecap:butt;stroke-linejoin:miter;stroke-miterlimit:10;stroke-opacity:1;stroke-dasharray:none"
   d="m 479.952,594.9 7.999,0" /><path
   inkscape:connector-curvature="0"
   id="path390"
   style="fill:none;stroke:#000000;stroke-width:1.19988;stroke-linecap:butt;stroke-linejoin:miter;stroke-miterlimit:10;stroke-opacity:1;stroke-dasharray:none"
   d="m 479.952,608.899 7.999,0" /><path
   inkscape:connector-curvature="0"
   id="path392"
   style="fill:none;stroke:#000000;stroke-width:1.19988;stroke-linecap:butt;stroke-linejoin:miter;stroke-miterlimit:10;stroke-opacity:1;stroke-dasharray:none"
   d="m 479.952,615.938 7.999,0" /><path
   inkscape:connector-curvature="0"
   id="path394"
   style="fill:none;stroke:#000000;stroke-width:1.19988;stroke-linecap:butt;stroke-linejoin:miter;stroke-miterlimit:10;stroke-opacity:1;stroke-dasharray:none"
   d="m 479.952,622.898 7.999,0" /><path
   inkscape:connector-curvature="0"
   id="path396"
   style="fill:none;stroke:#000000;stroke-width:1.19988;stroke-linecap:butt;stroke-linejoin:miter;stroke-miterlimit:10;stroke-opacity:1;stroke-dasharray:none"
   d="m 479.952,636.976 7.999,0" /><path
   inkscape:connector-curvature="0"
   id="path398"
   style="fill:none;stroke:#000000;stroke-width:1.19988;stroke-linecap:butt;stroke-linejoin:miter;stroke-miterlimit:10;stroke-opacity:1;stroke-dasharray:none"
   d="m 479.952,643.936 7.999,0" /><path
   inkscape:connector-curvature="0"
   id="path400"
   style="fill:none;stroke:#000000;stroke-width:1.19988;stroke-linecap:butt;stroke-linejoin:miter;stroke-miterlimit:10;stroke-opacity:1;stroke-dasharray:none"
   d="m 479.952,650.895 7.999,0" /><path
   inkscape:connector-curvature="0"
   id="path402"
   style="fill:none;stroke:#000000;stroke-width:1.19988;stroke-linecap:butt;stroke-linejoin:miter;stroke-miterlimit:10;stroke-opacity:1;stroke-dasharray:none"
   d="m 479.952,664.893 7.999,0" /><path
   inkscape:connector-curvature="0"
   id="path404"
   style="fill:none;stroke:#000000;stroke-width:1.19988;stroke-linecap:butt;stroke-linejoin:miter;stroke-miterlimit:10;stroke-opacity:1;stroke-dasharray:none"
   d="m 479.952,671.933 7.999,0" /><path
   inkscape:connector-curvature="0"
   id="path406"
   style="fill:none;stroke:#000000;stroke-width:1.19988;stroke-linecap:butt;stroke-linejoin:miter;stroke-miterlimit:10;stroke-opacity:1;stroke-dasharray:none"
   d="m 479.952,678.972 7.999,0" /><path
   inkscape:connector-curvature="0"
   id="path408"
   style="fill:none;stroke:#000000;stroke-width:1.19988;stroke-linecap:butt;stroke-linejoin:miter;stroke-miterlimit:10;stroke-opacity:1;stroke-dasharray:none"
   d="m 479.952,692.891 7.999,0" /><path
   inkscape:connector-curvature="0"
   id="path410"
   style="fill:none;stroke:#000000;stroke-width:1.19988;stroke-linecap:butt;stroke-linejoin:miter;stroke-miterlimit:10;stroke-opacity:1;stroke-dasharray:none"
   d="m 479.952,699.93 7.999,0" /><path
   inkscape:connector-curvature="0"
   id="path412"
   style="fill:none;stroke:#000000;stroke-width:1.19988;stroke-linecap:butt;stroke-linejoin:miter;stroke-miterlimit:10;stroke-opacity:1;stroke-dasharray:none"
   d="m 479.952,706.889 7.999,0" /><path
   inkscape:connector-curvature="0"
   id="path414"
   style="fill:none;stroke:#000000;stroke-width:1.19988;stroke-linecap:butt;stroke-linejoin:miter;stroke-miterlimit:10;stroke-opacity:1;stroke-dasharray:none"
   d="m 479.952,720.888 7.999,0" /><path
   inkscape:connector-curvature="0"
   id="path416"
   style="fill:none;stroke:#000000;stroke-width:1.19988;stroke-linecap:butt;stroke-linejoin:miter;stroke-miterlimit:10;stroke-opacity:1;stroke-dasharray:none"
   d="m 479.952,727.927 7.999,0" /><path
   inkscape:connector-curvature="0"
   id="path418"
   style="fill:none;stroke:#000000;stroke-width:1.19988;stroke-linecap:butt;stroke-linejoin:miter;stroke-miterlimit:10;stroke-opacity:1;stroke-dasharray:none"
   d="m 479.952,734.886 7.999,0" /><path
   inkscape:connector-curvature="0"
   id="path420"
   style="fill:none;stroke:#000000;stroke-width:1.19988;stroke-linecap:butt;stroke-linejoin:miter;stroke-miterlimit:10;stroke-opacity:1;stroke-dasharray:none"
   d="m 479.952,748.965 7.999,0" /><path
   inkscape:connector-curvature="0"
   id="path422"
   style="fill:none;stroke:#000000;stroke-width:1.19988;stroke-linecap:butt;stroke-linejoin:miter;stroke-miterlimit:10;stroke-opacity:1;stroke-dasharray:none"
   d="m 479.952,755.924 7.999,0" /><path
   inkscape:connector-curvature="0"
   id="path424"
   style="fill:none;stroke:#000000;stroke-width:1.19988;stroke-linecap:butt;stroke-linejoin:miter;stroke-miterlimit:10;stroke-opacity:1;stroke-dasharray:none"
   d="m 479.952,762.884 7.999,0" /><path
   inkscape:connector-curvature="0"
   id="path426"
   style="fill:none;stroke:#000000;stroke-width:1.19988;stroke-linecap:butt;stroke-linejoin:miter;stroke-miterlimit:10;stroke-opacity:1;stroke-dasharray:none"
   d="m 479.952,776.962 7.999,0" /><path
   inkscape:connector-curvature="0"
   id="path428"
   style="fill:none;stroke:#000000;stroke-width:1.19988;stroke-linecap:butt;stroke-linejoin:miter;stroke-miterlimit:10;stroke-opacity:1;stroke-dasharray:none"
   d="m 479.952,573.943 15.998,0" /><path
   inkscape:connector-curvature="0"
   id="path430"
   style="fill:none;stroke:#000000;stroke-width:1.19988;stroke-linecap:butt;stroke-linejoin:miter;stroke-miterlimit:10;stroke-opacity:1;stroke-dasharray:none"
   d="m 479.952,601.94 15.998,0" /><path
   inkscape:connector-curvature="0"
   id="path432"
   style="fill:none;stroke:#000000;stroke-width:1.19988;stroke-linecap:butt;stroke-linejoin:miter;stroke-miterlimit:10;stroke-opacity:1;stroke-dasharray:none"
   d="m 479.952,629.937 15.998,0" /><path
   inkscape:connector-curvature="0"
   id="path434"
   style="fill:none;stroke:#000000;stroke-width:1.19988;stroke-linecap:butt;stroke-linejoin:miter;stroke-miterlimit:10;stroke-opacity:1;stroke-dasharray:none"
   d="m 479.952,657.934 15.998,0" /><path
   inkscape:connector-curvature="0"
   id="path436"
   style="fill:none;stroke:#000000;stroke-width:1.19988;stroke-linecap:butt;stroke-linejoin:miter;stroke-miterlimit:10;stroke-opacity:1;stroke-dasharray:none"
   d="m 479.952,685.931 15.998,0" /><path
   inkscape:connector-curvature="0"
   id="path438"
   style="fill:none;stroke:#000000;stroke-width:1.19988;stroke-linecap:butt;stroke-linejoin:miter;stroke-miterlimit:10;stroke-opacity:1;stroke-dasharray:none"
   d="m 479.952,713.929 15.998,0" /><path
   inkscape:connector-curvature="0"
   id="path440"
   style="fill:none;stroke:#000000;stroke-width:1.19988;stroke-linecap:butt;stroke-linejoin:miter;stroke-miterlimit:10;stroke-opacity:1;stroke-dasharray:none"
   d="m 479.952,741.926 15.998,0" /><path
   inkscape:connector-curvature="0"
   id="path442"
   style="fill:none;stroke:#000000;stroke-width:1.19988;stroke-linecap:butt;stroke-linejoin:miter;stroke-miterlimit:10;stroke-opacity:1;stroke-dasharray:none"
   d="m 479.952,769.923 15.998,0" />



<path
   inkscape:connector-curvature="0"
   id="path478"
   style="fill:none;stroke:#000000;stroke-width:1.19988;stroke-linecap:butt;stroke-linejoin:miter;stroke-miterlimit:10;stroke-opacity:1;stroke-dasharray:none"
   d="m 479.952,559.944 319.968,0 0,223.977 -319.968,0 0,-223.977 z" />











<g
   id="g5672"
   transform="translate(0,-4.8)"><g
     transform="translate(0,-145.6)"
     id="g480">
</g><g
     id="g3170"
     transform="translate(-4.8,0)"><text
   id="text482"
   transform="matrix(1,0,0,-1,524.827,626.643)"><tspan
     y="0"
     x="0"
     id="tspan484"
     sodipodi:role="line"
     style="font-size:11.19890022px;font-variant:normal;font-weight:normal;writing-mode:lr-tb;fill:#000000;fill-opacity:1;fill-rule:nonzero;stroke:none;font-family:Times New Roman;-inkscape-font-specification:Times New Roman"><tspan
   style="font-style:italic"
   id="tspan3909">Q</tspan><tspan
   style="font-size:52%;baseline-shift:super"
   id="tspan3907">2</tspan> = 1.5 GeV<tspan
   style="font-size:52%;baseline-shift:super"
   id="tspan3905">2</tspan> Projected</tspan></text>

<path
   inkscape:connector-curvature="0"
   id="path486"
   style="fill:#ff00ff;fill-opacity:1;fill-rule:nonzero;stroke:none"
   d="m 512.829,633.282 -4,-4 4,-3.999 3.999,3.999" /><path
   inkscape:connector-curvature="0"
   id="path488"
   style="fill:none;stroke:#ff00ff;stroke-width:1.19988;stroke-linecap:butt;stroke-linejoin:miter;stroke-miterlimit:10;stroke-opacity:1;stroke-dasharray:none"
   d="m 512.829,633.282 -4,-4 4,-3.999 3.999,3.999 -3.999,4 z" /><g
   id="g490"
   transform="translate(0,-144)"><text
   id="text492"
   transform="matrix(1,0,0,-1,524.827,754.164)"><tspan
     id="tspan494"
     sodipodi:role="line"
     style="font-size:11.19890022000000100px;font-variant:normal;font-weight:normal;writing-mode:lr-tb;fill:#000000;fill-opacity:1;fill-rule:nonzero;stroke:none;font-family:Times New Roman;-inkscape-font-specification:Times New Roman"
     x="0"
     y="0">Sargsian Light Cone</tspan></text>


<text
   transform="scale(1,-1)"
   id="text5455"
   x="524.82703"
   y="-738.164"><tspan
     y="-738.164"
     x="524.82703"
     style="font-size:11.19890022000000100px;font-variant:normal;font-weight:normal;writing-mode:lr-tb;fill:#000000;fill-opacity:1;fill-rule:nonzero;stroke:none;font-family:Times New Roman;-inkscape-font-specification:Times New Roman"
     sodipodi:role="line"
     id="tspan5457">Sargsian Virtual Nucleon</tspan></text>


</g><path
   inkscape:connector-curvature="0"
   id="path496"
   style="fill:none;stroke:#ff0000;stroke-width:1.84000003;stroke-linecap:butt;stroke-linejoin:miter;stroke-miterlimit:10;stroke-opacity:1;stroke-dasharray:none;stroke-dashoffset:0"
   d="m 504.83,614.004 15.998,0" /><path
   d="m 504.83,598.004 15.998,0"
   style="fill:none;stroke:#0000ff;stroke-width:1.84000003;stroke-linecap:butt;stroke-linejoin:miter;stroke-miterlimit:10;stroke-opacity:1;stroke-dasharray:none;stroke-dashoffset:0"
   id="path5459"
   inkscape:connector-curvature="0" /></g></g><path
   inkscape:connector-curvature="0"
   id="path476-1"
   style="fill:none;stroke:#000000;stroke-width:1.19988;stroke-linecap:butt;stroke-linejoin:miter;stroke-miterlimit:10;stroke-opacity:1;stroke-dasharray:none"
   d="m 479.952,741.92599 319.968,0" /><g
   id="g4547"><path
     d="m 525.627,741.926 0,0.8"
     style="fill:none;stroke:#ff00ff;stroke-width:2.39976001;stroke-linecap:butt;stroke-linejoin:miter;stroke-miterlimit:10;stroke-opacity:1;stroke-dasharray:none"
     id="path174"
     inkscape:connector-curvature="0" /><path
     d="m 521.948,742.726 7.359,0"
     style="fill:none;stroke:#ff00ff;stroke-width:2.39976001;stroke-linecap:butt;stroke-linejoin:miter;stroke-miterlimit:10;stroke-opacity:1;stroke-dasharray:none"
     id="path176"
     inkscape:connector-curvature="0" /><path
     d="m 525.627,741.926 0,-0.8"
     style="fill:none;stroke:#ff00ff;stroke-width:2.39976001;stroke-linecap:butt;stroke-linejoin:miter;stroke-miterlimit:10;stroke-opacity:1;stroke-dasharray:none"
     id="path178"
     inkscape:connector-curvature="0" /><path
     d="m 529.307,741.126 -7.359,0"
     style="fill:none;stroke:#ff00ff;stroke-width:2.39976001;stroke-linecap:butt;stroke-linejoin:miter;stroke-miterlimit:10;stroke-opacity:1;stroke-dasharray:none"
     id="path180"
     inkscape:connector-curvature="0" /><path
     d="m 548.505,741.926 0,0.64"
     style="fill:none;stroke:#ff00ff;stroke-width:2.39976001;stroke-linecap:butt;stroke-linejoin:miter;stroke-miterlimit:10;stroke-opacity:1;stroke-dasharray:none"
     id="path182"
     inkscape:connector-curvature="0" /><path
     d="m 544.825,742.566 7.36,0"
     style="fill:none;stroke:#ff00ff;stroke-width:2.39976001;stroke-linecap:butt;stroke-linejoin:miter;stroke-miterlimit:10;stroke-opacity:1;stroke-dasharray:none"
     id="path184"
     inkscape:connector-curvature="0" /><path
     d="m 548.505,741.926 0,-0.64"
     style="fill:none;stroke:#ff00ff;stroke-width:2.39976001;stroke-linecap:butt;stroke-linejoin:miter;stroke-miterlimit:10;stroke-opacity:1;stroke-dasharray:none"
     id="path186"
     inkscape:connector-curvature="0" /><path
     d="m 552.185,741.286 -7.36,0"
     style="fill:none;stroke:#ff00ff;stroke-width:2.39976001;stroke-linecap:butt;stroke-linejoin:miter;stroke-miterlimit:10;stroke-opacity:1;stroke-dasharray:none"
     id="path188"
     inkscape:connector-curvature="0" /><path
     d="m 573.623,741.926 0,0.32"
     style="fill:none;stroke:#ff00ff;stroke-width:2.39976001;stroke-linecap:butt;stroke-linejoin:miter;stroke-miterlimit:10;stroke-opacity:1;stroke-dasharray:none"
     id="path190"
     inkscape:connector-curvature="0" /><path
     d="m 569.943,742.246 7.359,0"
     style="fill:none;stroke:#ff00ff;stroke-width:2.39976001;stroke-linecap:butt;stroke-linejoin:miter;stroke-miterlimit:10;stroke-opacity:1;stroke-dasharray:none"
     id="path192"
     inkscape:connector-curvature="0" /><path
     d="m 573.623,741.926 0,-0.32"
     style="fill:none;stroke:#ff00ff;stroke-width:2.39976001;stroke-linecap:butt;stroke-linejoin:miter;stroke-miterlimit:10;stroke-opacity:1;stroke-dasharray:none"
     id="path194"
     inkscape:connector-curvature="0" /><path
     d="m 577.302,741.606 -7.359,0"
     style="fill:none;stroke:#ff00ff;stroke-width:2.39976001;stroke-linecap:butt;stroke-linejoin:miter;stroke-miterlimit:10;stroke-opacity:1;stroke-dasharray:none"
     id="path196"
     inkscape:connector-curvature="0" /><path
     d="m 594.261,741.926 0,0.64"
     style="fill:none;stroke:#ff00ff;stroke-width:2.39976001;stroke-linecap:butt;stroke-linejoin:miter;stroke-miterlimit:10;stroke-opacity:1;stroke-dasharray:none"
     id="path198"
     inkscape:connector-curvature="0" /><path
     d="m 590.581,742.566 7.359,0"
     style="fill:none;stroke:#ff00ff;stroke-width:2.39976001;stroke-linecap:butt;stroke-linejoin:miter;stroke-miterlimit:10;stroke-opacity:1;stroke-dasharray:none"
     id="path200"
     inkscape:connector-curvature="0" /><path
     d="m 594.261,741.926 0,-0.64"
     style="fill:none;stroke:#ff00ff;stroke-width:2.39976001;stroke-linecap:butt;stroke-linejoin:miter;stroke-miterlimit:10;stroke-opacity:1;stroke-dasharray:none"
     id="path202"
     inkscape:connector-curvature="0" /><path
     d="m 597.94,741.286 -7.359,0"
     style="fill:none;stroke:#ff00ff;stroke-width:2.39976001;stroke-linecap:butt;stroke-linejoin:miter;stroke-miterlimit:10;stroke-opacity:1;stroke-dasharray:none"
     id="path204"
     inkscape:connector-curvature="0" /><path
     d="m 617.058,741.926 0,1.76"
     style="fill:none;stroke:#ff00ff;stroke-width:2.39976001;stroke-linecap:butt;stroke-linejoin:miter;stroke-miterlimit:10;stroke-opacity:1;stroke-dasharray:none"
     id="path206"
     inkscape:connector-curvature="0" /><path
     d="m 613.379,743.686 7.359,0"
     style="fill:none;stroke:#ff00ff;stroke-width:2.39976001;stroke-linecap:butt;stroke-linejoin:miter;stroke-miterlimit:10;stroke-opacity:1;stroke-dasharray:none"
     id="path208"
     inkscape:connector-curvature="0" /><path
     d="m 617.058,741.926 0,-1.76"
     style="fill:none;stroke:#ff00ff;stroke-width:2.39976001;stroke-linecap:butt;stroke-linejoin:miter;stroke-miterlimit:10;stroke-opacity:1;stroke-dasharray:none"
     id="path210"
     inkscape:connector-curvature="0" /><path
     d="m 620.738,740.166 -7.359,0"
     style="fill:none;stroke:#ff00ff;stroke-width:2.39976001;stroke-linecap:butt;stroke-linejoin:miter;stroke-miterlimit:10;stroke-opacity:1;stroke-dasharray:none"
     id="path212"
     inkscape:connector-curvature="0" /><path
     d="m 639.936,741.926 0,3.679"
     style="fill:none;stroke:#ff00ff;stroke-width:2.39976001;stroke-linecap:butt;stroke-linejoin:miter;stroke-miterlimit:10;stroke-opacity:1;stroke-dasharray:none"
     id="path214"
     inkscape:connector-curvature="0" /><path
     d="m 636.256,745.605 7.36,0"
     style="fill:none;stroke:#ff00ff;stroke-width:2.39976001;stroke-linecap:butt;stroke-linejoin:miter;stroke-miterlimit:10;stroke-opacity:1;stroke-dasharray:none"
     id="path216"
     inkscape:connector-curvature="0" /><path
     d="m 639.936,741.926 0,-3.68"
     style="fill:none;stroke:#ff00ff;stroke-width:2.39976001;stroke-linecap:butt;stroke-linejoin:miter;stroke-miterlimit:10;stroke-opacity:1;stroke-dasharray:none"
     id="path218"
     inkscape:connector-curvature="0" /><path
     d="m 643.616,738.246 -7.36,0"
     style="fill:none;stroke:#ff00ff;stroke-width:2.39976001;stroke-linecap:butt;stroke-linejoin:miter;stroke-miterlimit:10;stroke-opacity:1;stroke-dasharray:none"
     id="path220"
     inkscape:connector-curvature="0" /><path
     d="m 662.814,741.926 0,5.679"
     style="fill:none;stroke:#ff00ff;stroke-width:2.39976001;stroke-linecap:butt;stroke-linejoin:miter;stroke-miterlimit:10;stroke-opacity:1;stroke-dasharray:none"
     id="path222"
     inkscape:connector-curvature="0" /><path
     d="m 659.134,747.605 7.359,0"
     style="fill:none;stroke:#ff00ff;stroke-width:2.39976001;stroke-linecap:butt;stroke-linejoin:miter;stroke-miterlimit:10;stroke-opacity:1;stroke-dasharray:none"
     id="path224"
     inkscape:connector-curvature="0" /><path
     d="m 662.814,741.926 0,-5.68"
     style="fill:none;stroke:#ff00ff;stroke-width:2.39976001;stroke-linecap:butt;stroke-linejoin:miter;stroke-miterlimit:10;stroke-opacity:1;stroke-dasharray:none"
     id="path226"
     inkscape:connector-curvature="0" /><path
     d="m 666.493,736.246 -7.359,0"
     style="fill:none;stroke:#ff00ff;stroke-width:2.39976001;stroke-linecap:butt;stroke-linejoin:miter;stroke-miterlimit:10;stroke-opacity:1;stroke-dasharray:none"
     id="path228"
     inkscape:connector-curvature="0" /><path
     d="m 685.611,741.926 0,9.199"
     style="fill:none;stroke:#ff00ff;stroke-width:2.39976001;stroke-linecap:butt;stroke-linejoin:miter;stroke-miterlimit:10;stroke-opacity:1;stroke-dasharray:none"
     id="path230"
     inkscape:connector-curvature="0" /><path
     d="m 681.932,751.125 7.359,0"
     style="fill:none;stroke:#ff00ff;stroke-width:2.39976001;stroke-linecap:butt;stroke-linejoin:miter;stroke-miterlimit:10;stroke-opacity:1;stroke-dasharray:none"
     id="path232"
     inkscape:connector-curvature="0" /><path
     d="m 685.611,741.926 0,-9.199"
     style="fill:none;stroke:#ff00ff;stroke-width:2.39976001;stroke-linecap:butt;stroke-linejoin:miter;stroke-miterlimit:10;stroke-opacity:1;stroke-dasharray:none"
     id="path234"
     inkscape:connector-curvature="0" /><path
     d="m 689.291,732.727 -7.359,0"
     style="fill:none;stroke:#ff00ff;stroke-width:2.39976001;stroke-linecap:butt;stroke-linejoin:miter;stroke-miterlimit:10;stroke-opacity:1;stroke-dasharray:none"
     id="path236"
     inkscape:connector-curvature="0" /><path
     d="m 708.489,741.926 0,12.558"
     style="fill:none;stroke:#ff00ff;stroke-width:2.39976001;stroke-linecap:butt;stroke-linejoin:miter;stroke-miterlimit:10;stroke-opacity:1;stroke-dasharray:none"
     id="path238"
     inkscape:connector-curvature="0" /><path
     d="m 704.809,754.484 7.36,0"
     style="fill:none;stroke:#ff00ff;stroke-width:2.39976001;stroke-linecap:butt;stroke-linejoin:miter;stroke-miterlimit:10;stroke-opacity:1;stroke-dasharray:none"
     id="path240"
     inkscape:connector-curvature="0" /><path
     d="m 708.489,741.926 0,-12.559"
     style="fill:none;stroke:#ff00ff;stroke-width:2.39976001;stroke-linecap:butt;stroke-linejoin:miter;stroke-miterlimit:10;stroke-opacity:1;stroke-dasharray:none"
     id="path242"
     inkscape:connector-curvature="0" /><path
     d="m 712.169,729.367 -7.36,0"
     style="fill:none;stroke:#ff00ff;stroke-width:2.39976001;stroke-linecap:butt;stroke-linejoin:miter;stroke-miterlimit:10;stroke-opacity:1;stroke-dasharray:none"
     id="path244"
     inkscape:connector-curvature="0" /><path
     d="m 731.367,741.926 0,16.958"
     style="fill:none;stroke:#ff00ff;stroke-width:2.39976001;stroke-linecap:butt;stroke-linejoin:miter;stroke-miterlimit:10;stroke-opacity:1;stroke-dasharray:none"
     id="path246"
     inkscape:connector-curvature="0" /><path
     d="m 727.687,758.884 7.359,0"
     style="fill:none;stroke:#ff00ff;stroke-width:2.39976001;stroke-linecap:butt;stroke-linejoin:miter;stroke-miterlimit:10;stroke-opacity:1;stroke-dasharray:none"
     id="path248"
     inkscape:connector-curvature="0" /><path
     d="m 731.367,741.926 0,-16.958"
     style="fill:none;stroke:#ff00ff;stroke-width:2.39976001;stroke-linecap:butt;stroke-linejoin:miter;stroke-miterlimit:10;stroke-opacity:1;stroke-dasharray:none"
     id="path250"
     inkscape:connector-curvature="0" /><path
     d="m 735.046,724.968 -7.359,0"
     style="fill:none;stroke:#ff00ff;stroke-width:2.39976001;stroke-linecap:butt;stroke-linejoin:miter;stroke-miterlimit:10;stroke-opacity:1;stroke-dasharray:none"
     id="path252"
     inkscape:connector-curvature="0" /><path
     d="m 754.245,741.926 0,21.678"
     style="fill:none;stroke:#ff00ff;stroke-width:2.39976001;stroke-linecap:butt;stroke-linejoin:miter;stroke-miterlimit:10;stroke-opacity:1;stroke-dasharray:none"
     id="path254"
     inkscape:connector-curvature="0" /><path
     d="m 750.565,763.604 7.359,0"
     style="fill:none;stroke:#ff00ff;stroke-width:2.39976001;stroke-linecap:butt;stroke-linejoin:miter;stroke-miterlimit:10;stroke-opacity:1;stroke-dasharray:none"
     id="path256"
     inkscape:connector-curvature="0" /><path
     d="m 754.245,741.926 0,-21.678"
     style="fill:none;stroke:#ff00ff;stroke-width:2.39976001;stroke-linecap:butt;stroke-linejoin:miter;stroke-miterlimit:10;stroke-opacity:1;stroke-dasharray:none"
     id="path258"
     inkscape:connector-curvature="0" /><path
     d="m 757.924,720.248 -7.359,0"
     style="fill:none;stroke:#ff00ff;stroke-width:2.39976001;stroke-linecap:butt;stroke-linejoin:miter;stroke-miterlimit:10;stroke-opacity:1;stroke-dasharray:none"
     id="path260"
     inkscape:connector-curvature="0" /><path
     d="m 525.627,745.925 -3.999,-3.999 3.999,-4 4,4"
     style="fill:#ff00ff;fill-opacity:1;fill-rule:nonzero;stroke:none"
     id="path262"
     inkscape:connector-curvature="0" /><path
     d="m 525.627,745.925 -3.999,-3.999 3.999,-4 4,4 -4,3.999 z"
     style="fill:none;stroke:#ff00ff;stroke-width:1.19988;stroke-linecap:butt;stroke-linejoin:miter;stroke-miterlimit:10;stroke-opacity:1;stroke-dasharray:none"
     id="path264"
     inkscape:connector-curvature="0" /><path
     d="m 548.505,745.925 -4,-3.999 4,-4 4,4"
     style="fill:#ff00ff;fill-opacity:1;fill-rule:nonzero;stroke:none"
     id="path266"
     inkscape:connector-curvature="0" /><path
     d="m 548.505,745.925 -4,-3.999 4,-4 4,4 -4,3.999 z"
     style="fill:none;stroke:#ff00ff;stroke-width:1.19988;stroke-linecap:butt;stroke-linejoin:miter;stroke-miterlimit:10;stroke-opacity:1;stroke-dasharray:none"
     id="path268"
     inkscape:connector-curvature="0" /><path
     d="m 573.623,745.925 -4,-3.999 4,-4 3.999,4"
     style="fill:#ff00ff;fill-opacity:1;fill-rule:nonzero;stroke:none"
     id="path270"
     inkscape:connector-curvature="0" /><path
     d="m 573.623,745.925 -4,-3.999 4,-4 3.999,4 -3.999,3.999 z"
     style="fill:none;stroke:#ff00ff;stroke-width:1.19988;stroke-linecap:butt;stroke-linejoin:miter;stroke-miterlimit:10;stroke-opacity:1;stroke-dasharray:none"
     id="path272"
     inkscape:connector-curvature="0" /><path
     d="m 594.261,745.925 -4,-3.999 4,-4 3.999,4"
     style="fill:#ff00ff;fill-opacity:1;fill-rule:nonzero;stroke:none"
     id="path274"
     inkscape:connector-curvature="0" /><path
     d="m 594.261,745.925 -4,-3.999 4,-4 3.999,4 -3.999,3.999 z"
     style="fill:none;stroke:#ff00ff;stroke-width:1.19988;stroke-linecap:butt;stroke-linejoin:miter;stroke-miterlimit:10;stroke-opacity:1;stroke-dasharray:none"
     id="path276"
     inkscape:connector-curvature="0" /><path
     d="m 617.058,745.925 -3.999,-3.999 3.999,-4 4,4"
     style="fill:#ff00ff;fill-opacity:1;fill-rule:nonzero;stroke:none"
     id="path278"
     inkscape:connector-curvature="0" /><path
     d="m 617.058,745.925 -3.999,-3.999 3.999,-4 4,4 -4,3.999 z"
     style="fill:none;stroke:#ff00ff;stroke-width:1.19988;stroke-linecap:butt;stroke-linejoin:miter;stroke-miterlimit:10;stroke-opacity:1;stroke-dasharray:none"
     id="path280"
     inkscape:connector-curvature="0" /><path
     d="m 639.936,745.925 -4,-3.999 4,-4 4,4"
     style="fill:#ff00ff;fill-opacity:1;fill-rule:nonzero;stroke:none"
     id="path282"
     inkscape:connector-curvature="0" /><path
     d="m 639.936,745.925 -4,-3.999 4,-4 4,4 -4,3.999 z"
     style="fill:none;stroke:#ff00ff;stroke-width:1.19988;stroke-linecap:butt;stroke-linejoin:miter;stroke-miterlimit:10;stroke-opacity:1;stroke-dasharray:none"
     id="path284"
     inkscape:connector-curvature="0" /><path
     d="m 662.814,745.925 -4,-3.999 4,-4 3.999,4"
     style="fill:#ff00ff;fill-opacity:1;fill-rule:nonzero;stroke:none"
     id="path286"
     inkscape:connector-curvature="0" /><path
     d="m 662.814,745.925 -4,-3.999 4,-4 3.999,4 -3.999,3.999 z"
     style="fill:none;stroke:#ff00ff;stroke-width:1.19988;stroke-linecap:butt;stroke-linejoin:miter;stroke-miterlimit:10;stroke-opacity:1;stroke-dasharray:none"
     id="path288"
     inkscape:connector-curvature="0" /><path
     d="m 685.611,745.925 -3.999,-3.999 3.999,-4 4,4"
     style="fill:#ff00ff;fill-opacity:1;fill-rule:nonzero;stroke:none"
     id="path290"
     inkscape:connector-curvature="0" /><path
     d="m 685.611,745.925 -3.999,-3.999 3.999,-4 4,4 -4,3.999 z"
     style="fill:none;stroke:#ff00ff;stroke-width:1.19988;stroke-linecap:butt;stroke-linejoin:miter;stroke-miterlimit:10;stroke-opacity:1;stroke-dasharray:none"
     id="path292"
     inkscape:connector-curvature="0" /><path
     d="m 708.489,745.925 -4,-3.999 4,-4 4,4"
     style="fill:#ff00ff;fill-opacity:1;fill-rule:nonzero;stroke:none"
     id="path294"
     inkscape:connector-curvature="0" /><path
     d="m 708.489,745.925 -4,-3.999 4,-4 4,4 -4,3.999 z"
     style="fill:none;stroke:#ff00ff;stroke-width:1.19988;stroke-linecap:butt;stroke-linejoin:miter;stroke-miterlimit:10;stroke-opacity:1;stroke-dasharray:none"
     id="path296"
     inkscape:connector-curvature="0" /><path
     d="m 731.367,745.925 -4,-3.999 4,-4 3.999,4"
     style="fill:#ff00ff;fill-opacity:1;fill-rule:nonzero;stroke:none"
     id="path298"
     inkscape:connector-curvature="0" /><path
     d="m 731.367,745.925 -4,-3.999 4,-4 3.999,4 -3.999,3.999 z"
     style="fill:none;stroke:#ff00ff;stroke-width:1.19988;stroke-linecap:butt;stroke-linejoin:miter;stroke-miterlimit:10;stroke-opacity:1;stroke-dasharray:none"
     id="path300"
     inkscape:connector-curvature="0" /><path
     d="m 754.245,745.925 -4,-3.999 4,-4 3.999,4"
     style="fill:#ff00ff;fill-opacity:1;fill-rule:nonzero;stroke:none"
     id="path302"
     inkscape:connector-curvature="0" /><path
     d="m 754.245,745.925 -4,-3.999 4,-4 3.999,4 -3.999,3.999 z"
     style="fill:none;stroke:#ff00ff;stroke-width:1.19988;stroke-linecap:butt;stroke-linejoin:miter;stroke-miterlimit:10;stroke-opacity:1;stroke-dasharray:none"
     id="path304"
     inkscape:connector-curvature="0" /></g><g
   transform="translate(2.2184506e-6,-2.0450807e-6)"
   id="g4692"><text
     y="-544.26599"
     x="473.073"
     id="text370"
     transform="scale(1,-1)"><tspan
       id="tspan372"
       sodipodi:role="line"
       y="-544.26599"
       x="473.073 478.67245 481.47217 496.11096 501.71039 504.51013 518.90869 524.50812 527.30786 541.78644 547.38593 550.18561 569.22363 587.862 593.46143 596.26117 610.2597 615.85913 618.65887 633.29724 638.89673 641.69641 655.93518 661.53467 664.33441 679.05286 684.65228 687.45203 701.6908 707.29022 710.08997 724.64868 730.24811 733.04785 747.52649 753.12592 755.92566 770.32416 775.92365 778.72333 797.28125"
       style="font-size:11.19890022px;font-variant:normal;font-weight:normal;writing-mode:lr-tb;fill:#000000;fill-opacity:1;fill-rule:nonzero;stroke:none;font-family:Times New Roman;-inkscape-font-specification:Times-Roman">0.60.70.80.911.11.21.31.41.51.61.71.81.92</tspan></text>
<text
     y="-525.70782"
     x="608.81897"
     id="text374"
     transform="scale(1,-1)"><tspan
       id="tspan376"
       y="-525.70782"
       x="608.81897"
       style="font-size:22.39780045px;font-style:italic;font-variant:normal;font-weight:bold;writing-mode:lr-tb;fill:#000000;fill-opacity:1;fill-rule:nonzero;stroke:none;font-family:Times New Roman;-inkscape-font-specification:Times-BoldItalic">x</tspan></text>
<text
     y="-516.74884"
     x="620.0979"
     id="text378"
     transform="scale(1,-1)"><tspan
       id="tspan380"
       sodipodi:role="line"
       y="-516.74884"
       x="620.0979 630.66211 635.06519 642.98438 649.14551 657.0647 664.09698"
       style="font-size:15.83839989px;font-style:italic;font-variant:normal;font-weight:bold;writing-mode:lr-tb;fill:#000000;fill-opacity:1;fill-rule:nonzero;stroke:none;font-family:Times New Roman;-inkscape-font-specification:Times-BoldItalic">Bjorken</tspan></text>
<text
     y="-570.18298"
     x="454.43399"
     id="text452"
     transform="scale(1,-1)"><tspan
       id="tspan454"
       sodipodi:role="line"
       y="-570.18298"
       x="454.43399 458.16324 463.7627 466.56241"
       style="font-size:11.19890022px;font-variant:normal;font-weight:normal;writing-mode:lr-tb;fill:#000000;fill-opacity:1;fill-rule:nonzero;stroke:none;font-family:Times New Roman;-inkscape-font-specification:Times-Roman">-1.2</tspan><tspan
       id="tspan456"
       sodipodi:role="line"
       y="-598.10022"
       x="463.79337 467.52261"
       style="font-size:11.19890022px;font-variant:normal;font-weight:normal;writing-mode:lr-tb;fill:#000000;fill-opacity:1;fill-rule:nonzero;stroke:none;font-family:Times New Roman;-inkscape-font-specification:Times-Roman">-1</tspan><tspan
       id="tspan458"
       sodipodi:role="line"
       y="-626.17749"
       x="454.67422 458.40347 464.00293 466.80264"
       style="font-size:11.19890022px;font-variant:normal;font-weight:normal;writing-mode:lr-tb;fill:#000000;fill-opacity:1;fill-rule:nonzero;stroke:none;font-family:Times New Roman;-inkscape-font-specification:Times-Roman">-0.8</tspan><tspan
       id="tspan460"
       sodipodi:role="line"
       y="-654.1748"
       x="454.43402 458.16324 463.7627 466.56241"
       style="font-size:11.19890022px;font-variant:normal;font-weight:normal;writing-mode:lr-tb;fill:#000000;fill-opacity:1;fill-rule:nonzero;stroke:none;font-family:Times New Roman;-inkscape-font-specification:Times-Roman">-0.6</tspan><tspan
       id="tspan462"
       sodipodi:role="line"
       y="-682.17212"
       x="454.43402 458.16324 463.7627 466.56241"
       style="font-size:11.19890022px;font-variant:normal;font-weight:normal;writing-mode:lr-tb;fill:#000000;fill-opacity:1;fill-rule:nonzero;stroke:none;font-family:Times New Roman;-inkscape-font-specification:Times-Roman">-0.4</tspan><tspan
       id="tspan464"
       sodipodi:role="line"
       y="-710.16943"
       x="454.43402 458.16324 463.7627 466.56241"
       style="font-size:11.19890022px;font-variant:normal;font-weight:normal;writing-mode:lr-tb;fill:#000000;fill-opacity:1;fill-rule:nonzero;stroke:none;font-family:Times New Roman;-inkscape-font-specification:Times-Roman">-0.2</tspan><tspan
       id="tspan466"
       y="-738.16632"
       x="466.6731"
       style="font-size:11.19890022px;font-variant:normal;font-weight:normal;writing-mode:lr-tb;fill:#000000;fill-opacity:1;fill-rule:nonzero;stroke:none;font-family:Times New Roman;-inkscape-font-specification:Times-Roman">0</tspan><tspan
       id="tspan468"
       sodipodi:role="line"
       y="-766.16364"
       x="458.2739 463.87332 466.67307"
       style="font-size:11.19890022px;font-variant:normal;font-weight:normal;writing-mode:lr-tb;fill:#000000;fill-opacity:1;fill-rule:nonzero;stroke:none;font-family:Times New Roman;-inkscape-font-specification:Times-Roman">0.2</tspan></text>
<text
     y="435.15701"
     x="654.97498"
     id="text470"
     transform="matrix(0,1,1,0,0,0)"><tspan
       id="tspan472"
       y="435.15701"
       x="654.97498"
       style="font-size:22.39780045px;font-style:italic;font-variant:normal;font-weight:bold;writing-mode:lr-tb;fill:#000000;fill-opacity:1;fill-rule:nonzero;stroke:none;font-family:Times New Roman;-inkscape-font-specification:Times-BoldItalic">A</tspan></text>
<text
     y="444.11597"
     x="669.85352"
     id="text474"
     transform="matrix(0,1,1,0,0,0)"><tspan
       id="tspan476"
       sodipodi:role="line"
       y="444.11597"
       x="669.85352 676.01465"
       style="font-size:15.83839989px;font-style:italic;font-variant:normal;font-weight:bold;writing-mode:lr-tb;fill:#000000;fill-opacity:1;fill-rule:nonzero;stroke:none;font-family:Times New Roman;-inkscape-font-specification:Times-BoldItalic">zz</tspan><tspan
       id="tspan478"
       y="421.71829"
       x="682.1723"
       style="font-size:15.83839989px;font-style:italic;font-variant:normal;font-weight:bold;writing-mode:lr-tb;fill:#000000;fill-opacity:1;fill-rule:nonzero;stroke:none;font-family:Times New Roman;-inkscape-font-specification:Times-BoldItalic">d</tspan></text>
</g></g></svg>