<?xml version="1.0" encoding="UTF-8" standalone="no"?>
<!-- Created with Inkscape (http://www.inkscape.org/) -->

<svg
   xmlns:dc="http://purl.org/dc/elements/1.1/"
   xmlns:cc="http://creativecommons.org/ns#"
   xmlns:rdf="http://www.w3.org/1999/02/22-rdf-syntax-ns#"
   xmlns:svg="http://www.w3.org/2000/svg"
   xmlns="http://www.w3.org/2000/svg"
   xmlns:sodipodi="http://sodipodi.sourceforge.net/DTD/sodipodi-0.dtd"
   xmlns:inkscape="http://www.inkscape.org/namespaces/inkscape"
   id="svg2"
   version="1.1"
   inkscape:version="0.48.3.1 r9886"
   width="765"
   height="990"
   xml:space="preserve"
   sodipodi:docname="tensor_pol3.svg"><metadata
     id="metadata8"><rdf:RDF><cc:Work
         rdf:about=""><dc:format>image/svg+xml</dc:format><dc:type
           rdf:resource="http://purl.org/dc/dcmitype/StillImage" /><dc:title></dc:title></cc:Work></rdf:RDF></metadata><defs
     id="defs6" /><sodipodi:namedview
     pagecolor="#ffffff"
     bordercolor="#666666"
     borderopacity="1"
     objecttolerance="10"
     gridtolerance="10"
     guidetolerance="10"
     inkscape:pageopacity="0"
     inkscape:pageshadow="2"
     inkscape:window-width="1920"
     inkscape:window-height="1056"
     id="namedview4"
     showgrid="false"
     inkscape:zoom="1.185511"
     inkscape:cx="374.93926"
     inkscape:cy="362.99395"
     inkscape:window-x="0"
     inkscape:window-y="24"
     inkscape:window-maximized="1"
     inkscape:current-layer="g10" /><g
     id="g10"
     inkscape:groupmode="layer"
     inkscape:label="ink_ext_XXXXXX"
     transform="matrix(1.25,0,0,-1.25,0,990)"><path
       inkscape:connector-curvature="0"
       id="path16"
       style="fill:none;stroke:#0000ff;stroke-width:1.38023996;stroke-linecap:butt;stroke-linejoin:miter;stroke-miterlimit:10;stroke-opacity:1;stroke-dasharray:none"
       d="m 104.806,249.271 0.552,0 0.598,-0.046 0.553,0.046 0.598,-0.046 0.552,0.046 0.552,0.046 0.598,-0.046 0.552,0.046 3.451,0 0.552,0.046 0.598,-0.046 0.552,0.046 0.598,0.046 2.3,0 0.552,-0.046 0.553,0.046 1.15,0 0.598,0.046 0.552,0 0.598,-0.092 0.552,0.046 0.598,0 0.553,0.046 0.552,0 0.598,0.047 0.552,-0.047 0.598,-0.046 0.552,0 0.598,0.093 0.552,-0.047 0.598,0 0.552,0.047 0.552,-0.047 0.599,0.047 0.552,0 0.598,0.045 0.552,-0.045 1.15,0 0.598,0.045 0.552,-0.045 0.552,-0.047 0.598,0.047 0.552,0.045 0.598,0.046 0.553,-0.091 0.598,0.045 0.552,-0.045 1.15,0 0.552,0.045 0.598,0 0.553,-0.045 0.598,0 0.552,0.045 1.15,0 0.598,-0.092 0.552,0.092 0.552,0.046 0.598,-0.046 1.15,0 0.553,0.046 0.598,-0.046 1.702,0 0.552,-0.045 0.598,0.091 0.552,-0.046 1.748,0 0.553,-0.045 0.598,0.045 0.552,-0.092 0.552,0.047 0.598,0 0.552,-0.047 1.15,0 0.599,0.047 0.552,0.045 0.598,-0.045 0.552,-0.047 2.852,0 0.598,0.047 0.552,-0.047 0.599,-0.046 0.552,0.046 0.552,-0.046 0.598,0 0.552,0.046 0.598,-0.092 0.552,0 0.598,-0.092 0.552,0 0.598,0.046 0.552,-0.046 0.553,0.046 1.748,0 0.552,-0.092 0.598,-0.046 0.552,0 0.598,-0.046 0.552,0.046 0.552,-0.091 0.598,0.045 0.553,-0.092 2.3,0 0.598,-0.138 0.552,0.138 0.552,0.138 0.599,0.046 0.552,0.184 0.598,0.184 0.552,0.277 0.598,0.275 0.552,0.369 0.598,0.506 0.552,0.598 0.552,0.92 0.598,1.15 0.552,1.38 0.599,1.611 0.552,1.886 0.598,2.346 0.552,2.393 0.598,2.668 0.552,2.485 0.552,2.116 0.598,1.472 0.552,0.828 0.598,0.552 0.552,0.23 0.598,-0.23 0.553,-0.414 0.598,0.046 0.552,0.414 0.552,0.783 0.598,0.598 0.552,0.368 0.598,0.322 0.553,0.23 0.598,0.138 0.552,0.092 0.598,0.184 0.552,0.046 0.552,-0.184 0.598,0.23 0.552,0.552 0.598,0.23 0.552,-0.276 0.598,-0.138 0.553,0.552 0.598,0.69 0.552,0.323 0.552,-0.139 0.598,0.46 0.552,1.289 0.598,1.334 0.552,0.414 0.598,0.644 0.552,1.748 0.598,2.347 0.553,2.392 0.552,2.209 0.598,2.3 0.552,2.852 0.598,3.635 0.552,3.543 0.598,3.542 0.552,3.911 0.599,3.957 0.552,3.726 0.551,3.313 0.599,2.991 0.552,2.254 0.598,2.254 0.552,2.255 0.598,2.116 0.552,1.518 0.598,1.288 0.552,1.427 0.553,1.242 0.598,0 0.552,-1.656 0.598,-2.163 0.552,-2.024 0.598,-1.886 0.552,-2.393 0.598,-2.254 0.552,-1.932 0.552,-1.427 0.598,-0.69 0.553,-0.506 0.598,-0.552 0.552,-0.598 0.598,-0.506 0.552,-0.736 0.598,-0.599 0.552,-0.598 0.552,-0.046 0.599,0.46 0.551,0.046 0.599,-0.321 0.552,0.184 0.598,0.966 0.552,0.368 0.598,-0.415 0.552,-1.058 0.552,-0.459 0.598,0.459 0.553,0.553 0.598,0.046 0.552,-0.599 0.598,-0.322 0.552,1.15 0.598,1.243 0.552,-0.368 0.552,-0.69 0.598,-0.46 0.552,0.414 0.598,0.368 0.553,-0.598 0.598,-0.645 0.552,-0.414 0.598,-0.322 0.552,0.736 0.552,0.645 0.598,-0.138 0.552,0.643 0.599,1.795 0.551,1.426 0.599,0.828 0.551,0.368 0.599,0.323 0.552,0.321 0.552,-0.321 0.598,0.046 0.552,1.564 0.598,1.288 0.552,0.506 0.598,1.104 0.553,1.518 0.598,0.966 0.552,0.645 0.552,0.966 0.598,1.242 0.552,0.598 0.598,1.151 0.552,1.748 0.598,2.07 0.552,1.38 0.598,0.184 0.553,0.783 0.552,1.932 0.598,1.932 0.552,1.243 0.598,1.564 0.552,2.07 0.598,2.669 0.552,3.91 0.598,3.543 0.552,3.496 0.553,4.923 0.598,5.521 0.552,5.015 0.598,3.129 0.552,2.806 0.598,3.681 0.552,3.036 0.598,0.276 0.553,-0.874 0.552,-0.874 0.598,-2.392 0.552,-5.337 0.598,-7.637 0.552,-7.178 0.598,-6.395 0.552,-8.972 0.598,-11.041 0.552,-9.11 0.552,-7.96 0.599,-7.499 0.552,-7.637 0.598,-9.11 0.552,-8.327 0.598,-6.487 0.552,-5.337 0.598,-4.739 0.552,-4.233 0.552,-3.634 0.598,-1.979 0.552,-0.782 0.598,-0.598 0.553,-0.506 0.598,-0.368 0.552,-0.368 0.598,-0.46 0.552,-0.23 0.552,0 0.598,0.138 0.552,-0.276 0.599,-0.322 0.551,-0.139 0.599,0.047 0.552,-0.184 0.598,-0.23 0.552,-0.092 0.552,0.184 0.598,0.46 0.552,0.368 0.598,0.276 0.553,-0.046 0.598,-0.23 0.552,-0.276 0.598,-0.277 0.552,-0.459 0.552,-0.414 0.598,-0.414 0.552,-0.046 0.598,-0.184 0.552,-0.277 0.598,-0.414 0.553,-0.736 0.598,-0.736 0.552,-0.874 0.552,-0.966 0.598,-1.012 0.552,-0.921 0.598,-0.782 0.552,-0.69 0.599,-0.92 0.551,-0.69 0.599,-0.69 0.551,-0.552 0.553,-0.553 0.598,-0.414 0.552,-0.184 0.598,-0.046 0.552,-0.045 0.598,-0.047 0.552,-0.046 0.599,-0.046 0.552,0.046 0.552,-0.046 0.598,0.046 1.15,0 0.552,-0.046 0.598,0 0.552,0.092 0.598,-0.092 0.552,0.046 2.301,0 0.552,0.046 2.3,0 0.552,-0.046 0.598,0.046 0.553,0.047 0.598,0 0.552,-0.093 0.598,0.046 0.552,-0.046 0.598,0.046 4.003,0 0.552,-0.046 0.598,0.046 1.702,0 0.552,-0.046 0.599,0 0.552,0.046 0.598,0 0.552,-0.046 0.598,0.046 0.552,0.047 0.552,-0.093 0.598,0.046 0.552,-0.046 0.598,0.093 0.552,-0.093 0.599,0.046 0.552,-0.046 1.15,0 0.552,0.046 0.598,-0.046 0.552,0 0.598,-0.046 0.553,0.092 0.598,-0.046 0.552,0.093 0.598,-0.047 0.552,-0.046 1.15,0 0.552,0.046 0.598,0 0.552,0.047 0.598,-0.047 1.151,0 0.552,-0.046 0.552,0 0.598,0.184 0.552,0 0.598,-0.184 0.552,0.046 0.598,-0.138 0.552,0.185 0.598,-0.047 0.553,-0.046 0.552,0.046 0.598,0.047 0.552,-0.139 0.598,0.092 0.552,0.092 0.598,-0.138 0.552,-0.046 0.599,0.139 0.552,0.045 0.551,-0.138 0.599,0.046 1.15,0 0.552,-0.046 0.598,-0.046 0.552,0 0.598,0.046 0.552,0 0.553,0.046 0.598,-0.092 0.552,0.092 0.598,-0.046 0.552,-0.046 0.598,0.092 0.552,0 0.598,-0.046 0.552,0 0.552,0.046 0.598,0 0.553,-0.046 0.598,0.046 0.552,-0.046 0.598,0.093 0.552,-0.047 0.598,-0.046 0.552,0 0.552,0.046 0.598,-0.046 0.552,-0.046 0.598,-0.046 0.553,0.092 0.598,0 0.552,0.093 0.598,-0.093 0.552,-0.046 0.552,0.139 0.598,-0.139 0.552,0.092 0.599,0 0.552,0.047 0.598,0 0.552,-0.047 0.598,0.047" /><path
       inkscape:connector-curvature="0"
       id="path18"
       style="fill:none;stroke:#000000;stroke-width:0.69011998;stroke-linecap:butt;stroke-linejoin:miter;stroke-miterlimit:10;stroke-opacity:1;stroke-dasharray:none"
       d="m 69.0121,248.765 322.0559,0" /><path
       inkscape:connector-curvature="0"
       id="path20"
       style="fill:none;stroke:#000000;stroke-width:0.69011998;stroke-linecap:butt;stroke-linejoin:miter;stroke-miterlimit:10;stroke-opacity:1;stroke-dasharray:none"
       d="m 69.0121,398.567 322.0559,0" /><path
       inkscape:connector-curvature="0"
       id="path22"
       style="fill:none;stroke:#000000;stroke-width:0.69011998;stroke-linecap:butt;stroke-linejoin:miter;stroke-miterlimit:10;stroke-opacity:1;stroke-dasharray:none"
       d="m 104.806,248.765 0,4.601" /><path
       inkscape:connector-curvature="0"
       id="path24"
       style="fill:none;stroke:#000000;stroke-width:0.69011998;stroke-linecap:butt;stroke-linejoin:miter;stroke-miterlimit:10;stroke-opacity:1;stroke-dasharray:none"
       d="m 104.806,398.567 0,-4.601" /><path
       inkscape:connector-curvature="0"
       id="path26"
       style="fill:none;stroke:#000000;stroke-width:0.69011998;stroke-linecap:butt;stroke-linejoin:miter;stroke-miterlimit:10;stroke-opacity:1;stroke-dasharray:none"
       d="m 176.349,248.765 0,4.601" /><path
       inkscape:connector-curvature="0"
       id="path28"
       style="fill:none;stroke:#000000;stroke-width:0.69011998;stroke-linecap:butt;stroke-linejoin:miter;stroke-miterlimit:10;stroke-opacity:1;stroke-dasharray:none"
       d="m 176.349,398.567 0,-4.601" /><path
       inkscape:connector-curvature="0"
       id="path30"
       style="fill:none;stroke:#000000;stroke-width:0.69011998;stroke-linecap:butt;stroke-linejoin:miter;stroke-miterlimit:10;stroke-opacity:1;stroke-dasharray:none"
       d="m 247.937,248.765 0,4.601" /><path
       inkscape:connector-curvature="0"
       id="path32"
       style="fill:none;stroke:#000000;stroke-width:0.69011998;stroke-linecap:butt;stroke-linejoin:miter;stroke-miterlimit:10;stroke-opacity:1;stroke-dasharray:none"
       d="m 247.937,398.567 0,-4.601" /><path
       inkscape:connector-curvature="0"
       id="path34"
       style="fill:none;stroke:#000000;stroke-width:0.69011998;stroke-linecap:butt;stroke-linejoin:miter;stroke-miterlimit:10;stroke-opacity:1;stroke-dasharray:none"
       d="m 319.48,248.765 0,4.601" /><path
       inkscape:connector-curvature="0"
       id="path36"
       style="fill:none;stroke:#000000;stroke-width:0.69011998;stroke-linecap:butt;stroke-linejoin:miter;stroke-miterlimit:10;stroke-opacity:1;stroke-dasharray:none"
       d="m 319.48,398.567 0,-4.601" /><path
       inkscape:connector-curvature="0"
       id="path38"
       style="fill:none;stroke:#000000;stroke-width:0.69011998;stroke-linecap:butt;stroke-linejoin:miter;stroke-miterlimit:10;stroke-opacity:1;stroke-dasharray:none"
       d="m 391.068,248.765 0,4.601" /><path
       inkscape:connector-curvature="0"
       id="path40"
       style="fill:none;stroke:#000000;stroke-width:0.69011998;stroke-linecap:butt;stroke-linejoin:miter;stroke-miterlimit:10;stroke-opacity:1;stroke-dasharray:none"
       d="m 391.068,398.567 0,-4.601" /><path
       inkscape:connector-curvature="0"
       id="path42"
       style="fill:none;stroke:#000000;stroke-width:0.69011998;stroke-linecap:butt;stroke-linejoin:miter;stroke-miterlimit:10;stroke-opacity:1;stroke-dasharray:none"
       d="m 69.0121,248.765 0,9.202" /><path
       inkscape:connector-curvature="0"
       id="path44"
       style="fill:none;stroke:#000000;stroke-width:0.69011998;stroke-linecap:butt;stroke-linejoin:miter;stroke-miterlimit:10;stroke-opacity:1;stroke-dasharray:none"
       d="m 69.0121,398.567 0,-9.201" /><path
       inkscape:connector-curvature="0"
       id="path46"
       style="fill:none;stroke:#000000;stroke-width:0.69011998;stroke-linecap:butt;stroke-linejoin:miter;stroke-miterlimit:10;stroke-opacity:1;stroke-dasharray:none"
       d="m 140.6,248.765 0,9.202" /><path
       inkscape:connector-curvature="0"
       id="path48"
       style="fill:none;stroke:#000000;stroke-width:0.69011998;stroke-linecap:butt;stroke-linejoin:miter;stroke-miterlimit:10;stroke-opacity:1;stroke-dasharray:none"
       d="m 140.6,398.567 0,-9.201" /><path
       inkscape:connector-curvature="0"
       id="path50"
       style="fill:none;stroke:#000000;stroke-width:0.69011998;stroke-linecap:butt;stroke-linejoin:miter;stroke-miterlimit:10;stroke-opacity:1;stroke-dasharray:none"
       d="m 212.143,248.765 0,9.202" /><path
       inkscape:connector-curvature="0"
       id="path52"
       style="fill:none;stroke:#000000;stroke-width:0.69011998;stroke-linecap:butt;stroke-linejoin:miter;stroke-miterlimit:10;stroke-opacity:1;stroke-dasharray:none"
       d="m 212.143,398.567 0,-9.201" /><path
       inkscape:connector-curvature="0"
       id="path54"
       style="fill:none;stroke:#000000;stroke-width:0.69011998;stroke-linecap:butt;stroke-linejoin:miter;stroke-miterlimit:10;stroke-opacity:1;stroke-dasharray:none"
       d="m 283.731,248.765 0,9.202" /><path
       inkscape:connector-curvature="0"
       id="path56"
       style="fill:none;stroke:#000000;stroke-width:0.69011998;stroke-linecap:butt;stroke-linejoin:miter;stroke-miterlimit:10;stroke-opacity:1;stroke-dasharray:none"
       d="m 283.731,398.567 0,-9.201" /><path
       inkscape:connector-curvature="0"
       id="path58"
       style="fill:none;stroke:#000000;stroke-width:0.69011998;stroke-linecap:butt;stroke-linejoin:miter;stroke-miterlimit:10;stroke-opacity:1;stroke-dasharray:none"
       d="m 355.274,248.765 0,9.202" /><path
       inkscape:connector-curvature="0"
       id="path60"
       style="fill:none;stroke:#000000;stroke-width:0.69011998;stroke-linecap:butt;stroke-linejoin:miter;stroke-miterlimit:10;stroke-opacity:1;stroke-dasharray:none"
       d="m 355.274,398.567 0,-9.201" /><path
       inkscape:connector-curvature="0"
       id="path62"
       style="fill:none;stroke:#000000;stroke-width:0.69011998;stroke-linecap:butt;stroke-linejoin:miter;stroke-miterlimit:10;stroke-opacity:1;stroke-dasharray:none"
       d="m 69.0121,248.765 0,149.802" /><path
       inkscape:connector-curvature="0"
       id="path64"
       style="fill:none;stroke:#000000;stroke-width:0.69011998;stroke-linecap:butt;stroke-linejoin:miter;stroke-miterlimit:10;stroke-opacity:1;stroke-dasharray:none"
       d="m 391.068,248.765 0,149.802" /><path
       inkscape:connector-curvature="0"
       id="path66"
       style="fill:none;stroke:#000000;stroke-width:0.69011998;stroke-linecap:butt;stroke-linejoin:miter;stroke-miterlimit:10;stroke-opacity:1;stroke-dasharray:none"
       d="m 69.0121,266.018 4.6008,0" /><path
       inkscape:connector-curvature="0"
       id="path68"
       style="fill:none;stroke:#000000;stroke-width:0.69011998;stroke-linecap:butt;stroke-linejoin:miter;stroke-miterlimit:10;stroke-opacity:1;stroke-dasharray:none"
       d="m 391.068,266.018 -4.601,0" /><path
       inkscape:connector-curvature="0"
       id="path70"
       style="fill:none;stroke:#000000;stroke-width:0.69011998;stroke-linecap:butt;stroke-linejoin:miter;stroke-miterlimit:10;stroke-opacity:1;stroke-dasharray:none"
       d="m 69.0121,299.144 4.6008,0" /><path
       inkscape:connector-curvature="0"
       id="path72"
       style="fill:none;stroke:#000000;stroke-width:0.69011998;stroke-linecap:butt;stroke-linejoin:miter;stroke-miterlimit:10;stroke-opacity:1;stroke-dasharray:none"
       d="m 391.068,299.144 -4.601,0" /><path
       inkscape:connector-curvature="0"
       id="path74"
       style="fill:none;stroke:#000000;stroke-width:0.69011998;stroke-linecap:butt;stroke-linejoin:miter;stroke-miterlimit:10;stroke-opacity:1;stroke-dasharray:none"
       d="m 69.0121,332.27 4.6008,0" /><path
       inkscape:connector-curvature="0"
       id="path76"
       style="fill:none;stroke:#000000;stroke-width:0.69011998;stroke-linecap:butt;stroke-linejoin:miter;stroke-miterlimit:10;stroke-opacity:1;stroke-dasharray:none"
       d="m 391.068,332.27 -4.601,0" /><path
       inkscape:connector-curvature="0"
       id="path78"
       style="fill:none;stroke:#000000;stroke-width:0.69011998;stroke-linecap:butt;stroke-linejoin:miter;stroke-miterlimit:10;stroke-opacity:1;stroke-dasharray:none"
       d="m 69.0121,365.441 4.6008,0" /><path
       inkscape:connector-curvature="0"
       id="path80"
       style="fill:none;stroke:#000000;stroke-width:0.69011998;stroke-linecap:butt;stroke-linejoin:miter;stroke-miterlimit:10;stroke-opacity:1;stroke-dasharray:none"
       d="m 391.068,365.441 -4.601,0" /><path
       inkscape:connector-curvature="0"
       id="path82"
       style="fill:none;stroke:#000000;stroke-width:0.69011998;stroke-linecap:butt;stroke-linejoin:miter;stroke-miterlimit:10;stroke-opacity:1;stroke-dasharray:none"
       d="m 69.0121,398.567 4.6008,0" /><path
       inkscape:connector-curvature="0"
       id="path84"
       style="fill:none;stroke:#000000;stroke-width:0.69011998;stroke-linecap:butt;stroke-linejoin:miter;stroke-miterlimit:10;stroke-opacity:1;stroke-dasharray:none"
       d="m 391.068,398.567 -4.601,0" /><path
       inkscape:connector-curvature="0"
       id="path86"
       style="fill:none;stroke:#000000;stroke-width:0.69011998;stroke-linecap:butt;stroke-linejoin:miter;stroke-miterlimit:10;stroke-opacity:1;stroke-dasharray:none"
       d="m 69.0121,249.455 9.2016,0" /><path
       inkscape:connector-curvature="0"
       id="path88"
       style="fill:none;stroke:#000000;stroke-width:0.69011998;stroke-linecap:butt;stroke-linejoin:miter;stroke-miterlimit:10;stroke-opacity:1;stroke-dasharray:none"
       d="m 391.068,249.455 -9.202,0" /><path
       inkscape:connector-curvature="0"
       id="path90"
       style="fill:none;stroke:#000000;stroke-width:0.69011998;stroke-linecap:butt;stroke-linejoin:miter;stroke-miterlimit:10;stroke-opacity:1;stroke-dasharray:none"
       d="m 69.0121,282.581 9.2016,0" /><path
       inkscape:connector-curvature="0"
       id="path92"
       style="fill:none;stroke:#000000;stroke-width:0.69011998;stroke-linecap:butt;stroke-linejoin:miter;stroke-miterlimit:10;stroke-opacity:1;stroke-dasharray:none"
       d="m 391.068,282.581 -9.202,0" /><path
       inkscape:connector-curvature="0"
       id="path94"
       style="fill:none;stroke:#000000;stroke-width:0.69011998;stroke-linecap:butt;stroke-linejoin:miter;stroke-miterlimit:10;stroke-opacity:1;stroke-dasharray:none"
       d="m 69.0121,315.707 9.2016,0" /><path
       inkscape:connector-curvature="0"
       id="path96"
       style="fill:none;stroke:#000000;stroke-width:0.69011998;stroke-linecap:butt;stroke-linejoin:miter;stroke-miterlimit:10;stroke-opacity:1;stroke-dasharray:none"
       d="m 391.068,315.707 -9.202,0" /><path
       inkscape:connector-curvature="0"
       id="path98"
       style="fill:none;stroke:#000000;stroke-width:0.69011998;stroke-linecap:butt;stroke-linejoin:miter;stroke-miterlimit:10;stroke-opacity:1;stroke-dasharray:none"
       d="m 69.0121,348.879 9.2016,0" /><path
       inkscape:connector-curvature="0"
       id="path100"
       style="fill:none;stroke:#000000;stroke-width:0.69011998;stroke-linecap:butt;stroke-linejoin:miter;stroke-miterlimit:10;stroke-opacity:1;stroke-dasharray:none"
       d="m 391.068,348.879 -9.202,0" /><path
       inkscape:connector-curvature="0"
       id="path102"
       style="fill:none;stroke:#000000;stroke-width:0.69011998;stroke-linecap:butt;stroke-linejoin:miter;stroke-miterlimit:10;stroke-opacity:1;stroke-dasharray:none"
       d="m 69.0121,382.004 9.2016,0" /><path
       inkscape:connector-curvature="0"
       id="path104"
       style="fill:none;stroke:#000000;stroke-width:0.69011998;stroke-linecap:butt;stroke-linejoin:miter;stroke-miterlimit:10;stroke-opacity:1;stroke-dasharray:none"
       d="m 391.068,382.004 -9.202,0" /><text
       transform="scale(1,-1)"
       id="text108"
       x="58.430099"
       y="-245.13"><tspan
         style="font-size:12.88220023999999952px;font-variant:normal;font-weight:normal;writing-mode:lr-tb;fill:#000000;fill-opacity:1;fill-rule:nonzero;stroke:none;font-family:CMU Serif;-inkscape-font-specification:CMU Serif"
         x="58.430099"
         y="-245.13"
         id="tspan110">0</tspan><tspan
         style="font-size:12.88220023999999952px;font-variant:normal;font-weight:normal;writing-mode:lr-tb;fill:#000000;fill-opacity:1;fill-rule:nonzero;stroke:none;font-family:CMU Serif;-inkscape-font-specification:CMU Serif"
         x="42.3274 48.768501 51.989052 58.430149"
         y="-278.2558"
         sodipodi:role="line"
         id="tspan112">0.02</tspan><tspan
         style="font-size:12.88220023999999952px;font-variant:normal;font-weight:normal;writing-mode:lr-tb;fill:#000000;fill-opacity:1;fill-rule:nonzero;stroke:none;font-family:CMU Serif;-inkscape-font-specification:CMU Serif"
         x="42.3274 48.768501 51.989052 58.430149"
         y="-311.38159"
         sodipodi:role="line"
         id="tspan114">0.04</tspan><tspan
         style="font-size:12.88220023999999952px;font-variant:normal;font-weight:normal;writing-mode:lr-tb;fill:#000000;fill-opacity:1;fill-rule:nonzero;stroke:none;font-family:CMU Serif;-inkscape-font-specification:CMU Serif"
         x="42.3274 48.768501 51.989052 58.430149"
         y="-344.5535"
         sodipodi:role="line"
         id="tspan116">0.06</tspan><tspan
         style="font-size:12.88220023999999952px;font-variant:normal;font-weight:normal;writing-mode:lr-tb;fill:#000000;fill-opacity:1;fill-rule:nonzero;stroke:none;font-family:CMU Serif;-inkscape-font-specification:CMU Serif"
         x="42.55748 48.998577 52.219128 58.660229"
         y="-377.67929"
         sodipodi:role="line"
         id="tspan118">0.08</tspan></text>
<text
       transform="matrix(0,1,1,0,0,0)"
       id="text120"
       x="284.92801"
       y="35.104301"><tspan
         style="font-size:12.88220024px;font-variant:normal;font-weight:normal;writing-mode:lr-tb;fill:#000000;fill-opacity:1;fill-rule:nonzero;stroke:none;font-family:CMU Serif;-inkscape-font-specification:CMU Serif"
         sodipodi:role="line"
         id="tspan122"
         x="284.92801"
         y="35.104301">Arbitrary Units</tspan></text>
<path
       inkscape:connector-curvature="0"
       id="path124"
       style="fill:none;stroke:#000000;stroke-width:0.69011998;stroke-linecap:butt;stroke-linejoin:miter;stroke-miterlimit:10;stroke-opacity:1;stroke-dasharray:none"
       d="m 69.0121,248.765 322.056,0 0,149.802 -322.056,0 0,-149.802 z" /><path
       inkscape:connector-curvature="0"
       id="path126"
       style="fill:#ffffff;fill-opacity:1;fill-rule:nonzero;stroke:none"
       d="m 92.016,350.443 150.768,0 0,23.234 -150.768,0 0,-23.234 z" /><path
       inkscape:connector-curvature="0"
       id="path128"
       style="fill:none;stroke:#ffffff;stroke-width:0.69011998;stroke-linecap:butt;stroke-linejoin:miter;stroke-miterlimit:10;stroke-opacity:1;stroke-dasharray:none"
       d="m 92.016,350.443 150.768,0 0,23.234 -150.768,0 0,-23.234 z" /><text
       transform="scale(1,-1)"
       id="text132"
       x="124.912"
       y="-360.19601"><tspan
         style="font-size:12.88220024px;font-variant:normal;font-weight:normal;writing-mode:lr-tb;fill:#000000;fill-opacity:1;fill-rule:nonzero;stroke:none;font-family:CMU Serif;-inkscape-font-specification:CMU Serif"
         sodipodi:role="line"
         id="tspan134"
         x="124.912"
         y="-360.19601">Enhanced ND<tspan
   style="font-size:52%;baseline-shift:sub"
   id="tspan3446">3</tspan> Signal</tspan></text>
<text
       transform="scale(1,-1)"
       id="text140"
       x="205.42593"
       y="-360.19601"><tspan
         style="font-size:12.88220024px;font-variant:normal;font-weight:normal;writing-mode:lr-tb;fill:#000000;fill-opacity:1;fill-rule:nonzero;stroke:none;font-family:Times;-inkscape-font-specification:Times-Roman"
         sodipodi:role="line"
         id="tspan142"
         x="205.42593"
         y="-360.19601" /></text>
<path
       inkscape:connector-curvature="0"
       id="path144"
       style="fill:none;stroke:#0000ff;stroke-width:1.38023996;stroke-linecap:butt;stroke-linejoin:miter;stroke-miterlimit:10;stroke-opacity:1;stroke-dasharray:none"
       d="m 97.307,362.037 18.403,0" /><path
       inkscape:connector-curvature="0"
       id="path146"
       style="fill:none;stroke:#000000;stroke-width:1.38023996;stroke-linecap:butt;stroke-linejoin:miter;stroke-miterlimit:10;stroke-opacity:1;stroke-dasharray:none"
       d="m 68.966,94.7305 0.0461,0 8.0512,1.7941 8.0515,1.8406 8.0512,1.8868 8.052,1.978 8.051,2.024 8.051,2.071 8.052,2.162 8.051,2.254 8.052,2.301 8.051,2.346 8.051,2.439 8.052,2.484 8.051,2.577 8.052,2.622 8.051,2.714 8.051,2.807 8.052,2.852 8.051,2.899 8.052,2.99 8.051,3.083 8.051,3.174 8.052,3.221 8.051,3.312 8.052,3.405 8.051,3.451 8.051,3.588 8.052,3.635 8.051,3.727 8.052,3.818 8.051,3.865 8.051,4.003 8.052,4.094 8.051,4.187 8.052,4.233 8.051,4.371 8.051,4.462 8.052,4.601 8.051,4.647 8.051,4.785 2.347,1.426" /><path
       inkscape:connector-curvature="0"
       id="path148"
       style="fill:none;stroke:#000000;stroke-width:0.69011998;stroke-linecap:butt;stroke-linejoin:miter;stroke-miterlimit:10;stroke-opacity:1;stroke-dasharray:none"
       d="m 69.0121,69.0121 322.0559,0" /><path
       inkscape:connector-curvature="0"
       id="path150"
       style="fill:none;stroke:#000000;stroke-width:0.69011998;stroke-linecap:butt;stroke-linejoin:miter;stroke-miterlimit:10;stroke-opacity:1;stroke-dasharray:none"
       d="m 69.0121,218.814 322.0559,0" /><path
       inkscape:connector-curvature="0"
       id="path152"
       style="fill:none;stroke:#000000;stroke-width:0.69011998;stroke-linecap:butt;stroke-linejoin:miter;stroke-miterlimit:10;stroke-opacity:1;stroke-dasharray:none"
       d="m 109.269,69.0121 0,4.6008" /><path
       inkscape:connector-curvature="0"
       id="path154"
       style="fill:none;stroke:#000000;stroke-width:0.69011998;stroke-linecap:butt;stroke-linejoin:miter;stroke-miterlimit:10;stroke-opacity:1;stroke-dasharray:none"
       d="m 109.269,218.814 0,-4.601" /><path
       inkscape:connector-curvature="0"
       id="path156"
       style="fill:none;stroke:#000000;stroke-width:0.69011998;stroke-linecap:butt;stroke-linejoin:miter;stroke-miterlimit:10;stroke-opacity:1;stroke-dasharray:none"
       d="m 189.783,69.0121 0,4.6008" /><path
       inkscape:connector-curvature="0"
       id="path158"
       style="fill:none;stroke:#000000;stroke-width:0.69011998;stroke-linecap:butt;stroke-linejoin:miter;stroke-miterlimit:10;stroke-opacity:1;stroke-dasharray:none"
       d="m 189.783,218.814 0,-4.601" /><path
       inkscape:connector-curvature="0"
       id="path160"
       style="fill:none;stroke:#000000;stroke-width:0.69011998;stroke-linecap:butt;stroke-linejoin:miter;stroke-miterlimit:10;stroke-opacity:1;stroke-dasharray:none"
       d="m 270.297,69.0121 0,4.6008" /><path
       inkscape:connector-curvature="0"
       id="path162"
       style="fill:none;stroke:#000000;stroke-width:0.69011998;stroke-linecap:butt;stroke-linejoin:miter;stroke-miterlimit:10;stroke-opacity:1;stroke-dasharray:none"
       d="m 270.297,218.814 0,-4.601" /><path
       inkscape:connector-curvature="0"
       id="path164"
       style="fill:none;stroke:#000000;stroke-width:0.69011998;stroke-linecap:butt;stroke-linejoin:miter;stroke-miterlimit:10;stroke-opacity:1;stroke-dasharray:none"
       d="m 350.811,69.0121 0,4.6008" /><path
       inkscape:connector-curvature="0"
       id="path166"
       style="fill:none;stroke:#000000;stroke-width:0.69011998;stroke-linecap:butt;stroke-linejoin:miter;stroke-miterlimit:10;stroke-opacity:1;stroke-dasharray:none"
       d="m 350.811,218.814 0,-4.601" /><path
       inkscape:connector-curvature="0"
       id="path168"
       style="fill:none;stroke:#000000;stroke-width:0.69011998;stroke-linecap:butt;stroke-linejoin:miter;stroke-miterlimit:10;stroke-opacity:1;stroke-dasharray:none"
       d="m 69.0121,69.0121 0,9.2016" /><path
       inkscape:connector-curvature="0"
       id="path170"
       style="fill:none;stroke:#000000;stroke-width:0.69011998;stroke-linecap:butt;stroke-linejoin:miter;stroke-miterlimit:10;stroke-opacity:1;stroke-dasharray:none"
       d="m 69.0121,218.814 0,-9.202" /><path
       inkscape:connector-curvature="0"
       id="path172"
       style="fill:none;stroke:#000000;stroke-width:0.69011998;stroke-linecap:butt;stroke-linejoin:miter;stroke-miterlimit:10;stroke-opacity:1;stroke-dasharray:none"
       d="m 149.526,69.0121 0,9.2016" /><path
       inkscape:connector-curvature="0"
       id="path174"
       style="fill:none;stroke:#000000;stroke-width:0.69011998;stroke-linecap:butt;stroke-linejoin:miter;stroke-miterlimit:10;stroke-opacity:1;stroke-dasharray:none"
       d="m 149.526,218.814 0,-9.202" /><path
       inkscape:connector-curvature="0"
       id="path176"
       style="fill:none;stroke:#000000;stroke-width:0.69011998;stroke-linecap:butt;stroke-linejoin:miter;stroke-miterlimit:10;stroke-opacity:1;stroke-dasharray:none"
       d="m 230.04,69.0121 0,9.2016" /><path
       inkscape:connector-curvature="0"
       id="path178"
       style="fill:none;stroke:#000000;stroke-width:0.69011998;stroke-linecap:butt;stroke-linejoin:miter;stroke-miterlimit:10;stroke-opacity:1;stroke-dasharray:none"
       d="m 230.04,218.814 0,-9.202" /><path
       inkscape:connector-curvature="0"
       id="path180"
       style="fill:none;stroke:#000000;stroke-width:0.69011998;stroke-linecap:butt;stroke-linejoin:miter;stroke-miterlimit:10;stroke-opacity:1;stroke-dasharray:none"
       d="m 310.554,69.0121 0,9.2016" /><path
       inkscape:connector-curvature="0"
       id="path182"
       style="fill:none;stroke:#000000;stroke-width:0.69011998;stroke-linecap:butt;stroke-linejoin:miter;stroke-miterlimit:10;stroke-opacity:1;stroke-dasharray:none"
       d="m 310.554,218.814 0,-9.202" /><path
       inkscape:connector-curvature="0"
       id="path184"
       style="fill:none;stroke:#000000;stroke-width:0.69011998;stroke-linecap:butt;stroke-linejoin:miter;stroke-miterlimit:10;stroke-opacity:1;stroke-dasharray:none"
       d="m 391.068,69.0121 0,9.2016" /><path
       inkscape:connector-curvature="0"
       id="path186"
       style="fill:none;stroke:#000000;stroke-width:0.69011998;stroke-linecap:butt;stroke-linejoin:miter;stroke-miterlimit:10;stroke-opacity:1;stroke-dasharray:none"
       d="m 391.068,218.814 0,-9.202" /><text
       transform="scale(1,-1)"
       id="text190"
       x="62.7551"
       y="-55.531601"><tspan
         style="font-size:12.88220023999999952px;font-variant:normal;font-weight:normal;writing-mode:lr-tb;fill:#000000;fill-opacity:1;fill-rule:nonzero;stroke:none;font-family:CMU Serif;-inkscape-font-specification:CMU Serif"
         x="62.7551 69.196198 143.26846 149.70956 223.78221 230.22331 304.29596 310.73706 384.80972 391.25082"
         y="-55.531601"
         sodipodi:role="line"
         id="tspan192">3040506070</tspan></text>
<text
       transform="scale(1,-1)"
       id="text194"
       x="164.66209"
       y="-41.315201"><tspan
         style="font-size:12.88220024px;font-variant:normal;font-weight:normal;writing-mode:lr-tb;fill:#000000;fill-opacity:1;fill-rule:nonzero;stroke:none;font-family:CMU Serif;-inkscape-font-specification:CMU Serif"
         sodipodi:role="line"
         id="tspan196"
         x="164.66209"
         y="-41.315201">Vector Polarization (%)</tspan></text>
<path
       inkscape:connector-curvature="0"
       id="path198"
       style="fill:none;stroke:#000000;stroke-width:0.69011998;stroke-linecap:butt;stroke-linejoin:miter;stroke-miterlimit:10;stroke-opacity:1;stroke-dasharray:none"
       d="m 69.0121,69.0121 0,149.8019" /><path
       inkscape:connector-curvature="0"
       id="path200"
       style="fill:none;stroke:#000000;stroke-width:0.69011998;stroke-linecap:butt;stroke-linejoin:miter;stroke-miterlimit:10;stroke-opacity:1;stroke-dasharray:none"
       d="m 391.068,69.0121 0,149.8019" /><path
       inkscape:connector-curvature="0"
       id="path202"
       style="fill:none;stroke:#000000;stroke-width:0.69011998;stroke-linecap:butt;stroke-linejoin:miter;stroke-miterlimit:10;stroke-opacity:1;stroke-dasharray:none"
       d="m 69.0121,87.7371 4.6008,0" /><path
       inkscape:connector-curvature="0"
       id="path204"
       style="fill:none;stroke:#000000;stroke-width:0.69011998;stroke-linecap:butt;stroke-linejoin:miter;stroke-miterlimit:10;stroke-opacity:1;stroke-dasharray:none"
       d="m 391.068,87.7371 -4.601,0" /><path
       inkscape:connector-curvature="0"
       id="path206"
       style="fill:none;stroke:#000000;stroke-width:0.69011998;stroke-linecap:butt;stroke-linejoin:miter;stroke-miterlimit:10;stroke-opacity:1;stroke-dasharray:none"
       d="m 69.0121,125.188 4.6008,0" /><path
       inkscape:connector-curvature="0"
       id="path208"
       style="fill:none;stroke:#000000;stroke-width:0.69011998;stroke-linecap:butt;stroke-linejoin:miter;stroke-miterlimit:10;stroke-opacity:1;stroke-dasharray:none"
       d="m 391.068,125.188 -4.601,0" /><path
       inkscape:connector-curvature="0"
       id="path210"
       style="fill:none;stroke:#000000;stroke-width:0.69011998;stroke-linecap:butt;stroke-linejoin:miter;stroke-miterlimit:10;stroke-opacity:1;stroke-dasharray:none"
       d="m 69.0121,162.638 4.6008,0" /><path
       inkscape:connector-curvature="0"
       id="path212"
       style="fill:none;stroke:#000000;stroke-width:0.69011998;stroke-linecap:butt;stroke-linejoin:miter;stroke-miterlimit:10;stroke-opacity:1;stroke-dasharray:none"
       d="m 391.068,162.638 -4.601,0" /><path
       inkscape:connector-curvature="0"
       id="path214"
       style="fill:none;stroke:#000000;stroke-width:0.69011998;stroke-linecap:butt;stroke-linejoin:miter;stroke-miterlimit:10;stroke-opacity:1;stroke-dasharray:none"
       d="m 69.0121,200.089 4.6008,0" /><path
       inkscape:connector-curvature="0"
       id="path216"
       style="fill:none;stroke:#000000;stroke-width:0.69011998;stroke-linecap:butt;stroke-linejoin:miter;stroke-miterlimit:10;stroke-opacity:1;stroke-dasharray:none"
       d="m 391.068,200.089 -4.601,0" /><path
       inkscape:connector-curvature="0"
       id="path218"
       style="fill:none;stroke:#000000;stroke-width:0.69011998;stroke-linecap:butt;stroke-linejoin:miter;stroke-miterlimit:10;stroke-opacity:1;stroke-dasharray:none"
       d="m 69.0121,69.0121 9.2016,0" /><path
       inkscape:connector-curvature="0"
       id="path220"
       style="fill:none;stroke:#000000;stroke-width:0.69011998;stroke-linecap:butt;stroke-linejoin:miter;stroke-miterlimit:10;stroke-opacity:1;stroke-dasharray:none"
       d="m 391.068,69.0121 -9.202,0" /><path
       inkscape:connector-curvature="0"
       id="path222"
       style="fill:none;stroke:#000000;stroke-width:0.69011998;stroke-linecap:butt;stroke-linejoin:miter;stroke-miterlimit:10;stroke-opacity:1;stroke-dasharray:none"
       d="m 69.0121,106.462 9.2016,0" /><path
       inkscape:connector-curvature="0"
       id="path224"
       style="fill:none;stroke:#000000;stroke-width:0.69011998;stroke-linecap:butt;stroke-linejoin:miter;stroke-miterlimit:10;stroke-opacity:1;stroke-dasharray:none"
       d="m 391.068,106.462 -9.202,0" /><path
       inkscape:connector-curvature="0"
       id="path226"
       style="fill:none;stroke:#000000;stroke-width:0.69011998;stroke-linecap:butt;stroke-linejoin:miter;stroke-miterlimit:10;stroke-opacity:1;stroke-dasharray:none"
       d="m 69.0121,143.913 9.2016,0" /><path
       inkscape:connector-curvature="0"
       id="path228"
       style="fill:none;stroke:#000000;stroke-width:0.69011998;stroke-linecap:butt;stroke-linejoin:miter;stroke-miterlimit:10;stroke-opacity:1;stroke-dasharray:none"
       d="m 391.068,143.913 -9.202,0" /><path
       inkscape:connector-curvature="0"
       id="path230"
       style="fill:none;stroke:#000000;stroke-width:0.69011998;stroke-linecap:butt;stroke-linejoin:miter;stroke-miterlimit:10;stroke-opacity:1;stroke-dasharray:none"
       d="m 69.0121,181.364 9.2016,0" /><path
       inkscape:connector-curvature="0"
       id="path232"
       style="fill:none;stroke:#000000;stroke-width:0.69011998;stroke-linecap:butt;stroke-linejoin:miter;stroke-miterlimit:10;stroke-opacity:1;stroke-dasharray:none"
       d="m 391.068,181.364 -9.202,0" /><path
       inkscape:connector-curvature="0"
       id="path234"
       style="fill:none;stroke:#000000;stroke-width:0.69011998;stroke-linecap:butt;stroke-linejoin:miter;stroke-miterlimit:10;stroke-opacity:1;stroke-dasharray:none"
       d="m 69.0121,218.814 9.2016,0" /><path
       inkscape:connector-curvature="0"
       id="path236"
       style="fill:none;stroke:#000000;stroke-width:0.69011998;stroke-linecap:butt;stroke-linejoin:miter;stroke-miterlimit:10;stroke-opacity:1;stroke-dasharray:none"
       d="m 391.068,218.814 -9.202,0" /><text
       transform="scale(1,-1)"
       id="text240"
       x="58.430099"
       y="-64.687103"><tspan
         style="font-size:12.88220023999999952px;font-variant:normal;font-weight:normal;writing-mode:lr-tb;fill:#000000;fill-opacity:1;fill-rule:nonzero;stroke:none;font-family:CMU Serif;-inkscape-font-specification:CMU Serif"
         x="58.430099"
         y="-64.687103"
         id="tspan242">0</tspan><tspan
         style="font-size:12.88220023999999952px;font-variant:normal;font-weight:normal;writing-mode:lr-tb;fill:#000000;fill-opacity:1;fill-rule:nonzero;stroke:none;font-family:CMU Serif;-inkscape-font-specification:CMU Serif"
         x="51.942989 58.38409"
         y="-102.1379"
         sodipodi:role="line"
         id="tspan244">10</tspan><tspan
         style="font-size:12.88220023999999952px;font-variant:normal;font-weight:normal;writing-mode:lr-tb;fill:#000000;fill-opacity:1;fill-rule:nonzero;stroke:none;font-family:CMU Serif;-inkscape-font-specification:CMU Serif"
         x="51.942989 58.38409"
         y="-139.5883"
         sodipodi:role="line"
         id="tspan246">20</tspan><tspan
         style="font-size:12.88220023999999952px;font-variant:normal;font-weight:normal;writing-mode:lr-tb;fill:#000000;fill-opacity:1;fill-rule:nonzero;stroke:none;font-family:CMU Serif;-inkscape-font-specification:CMU Serif"
         x="51.942989 58.38409"
         y="-177.0387"
         sodipodi:role="line"
         id="tspan248">30</tspan><tspan
         style="font-size:12.88220023999999952px;font-variant:normal;font-weight:normal;writing-mode:lr-tb;fill:#000000;fill-opacity:1;fill-rule:nonzero;stroke:none;font-family:CMU Serif;-inkscape-font-specification:CMU Serif"
         x="51.942989 58.38409"
         y="-214.4895"
         sodipodi:role="line"
         id="tspan250">40</tspan></text>
<text
       transform="matrix(0,1,1,0,0,0)"
       id="text252"
       x="77.063301"
       y="44.673801"><tspan
         style="font-size:12.88220024px;font-variant:normal;font-weight:normal;writing-mode:lr-tb;fill:#000000;fill-opacity:1;fill-rule:nonzero;stroke:none;font-family:CMU Serif;-inkscape-font-specification:CMU Serif"
         sodipodi:role="line"
         id="tspan254"
         x="77.063301"
         y="44.673801">Tensor Polarization (%)</tspan></text>
<path
       inkscape:connector-curvature="0"
       id="path256"
       style="fill:none;stroke:#000000;stroke-width:0.69011998;stroke-linecap:butt;stroke-linejoin:miter;stroke-miterlimit:10;stroke-opacity:1;stroke-dasharray:none"
       d="m 69.0121,69.0121 322.056,0 0,149.802 -322.056,0 0,-149.802 z" /><path
       inkscape:connector-curvature="0"
       id="path258"
       style="fill:#ffffff;fill-opacity:1;fill-rule:nonzero;stroke:none"
       d="m 92.016,158.682 123.439,0 0,25.3504 -123.439,0 0,-25.3504 z" /><path
       inkscape:connector-curvature="0"
       id="path260"
       style="fill:none;stroke:#ffffff;stroke-width:0.69011998;stroke-linecap:butt;stroke-linejoin:miter;stroke-miterlimit:10;stroke-opacity:1;stroke-dasharray:none"
       d="m 92.016,158.682 123.439,0 0,25.3504 -123.439,0 0,-25.3504 z" /><text
       transform="scale(1,-1)"
       id="text264"
       x="124.912"
       y="-165.72099"
       style="font-family:CMU Serif;-inkscape-font-specification:CMU Serif"><tspan
         style="font-size:12.88220024px;font-variant:normal;font-weight:normal;writing-mode:lr-tb;fill:#000000;fill-opacity:1;fill-rule:nonzero;stroke:none;font-family:CMU Serif;-inkscape-font-specification:CMU Serif"
         sodipodi:role="line"
         id="tspan266"
         x="124.912"
         y="-165.72099"><tspan
   style="font-style:italic"
   id="tspan3454">A</tspan> = 2 -(4-3<tspan
   style="font-style:italic"
   id="tspan3452">P</tspan><tspan
   style="font-size:52.00042725%;baseline-shift:super"
   id="tspan3450"> 2</tspan>)<tspan
   style="font-size:52.00042725%;baseline-shift:super"
   id="tspan3448">1/2</tspan></tspan></text>
<path
       inkscape:connector-curvature="0"
       id="path280"
       style="fill:none;stroke:#000000;stroke-width:1.38023996;stroke-linecap:butt;stroke-linejoin:miter;stroke-miterlimit:10;stroke-opacity:1;stroke-dasharray:none"
       d="m 97.307,171.38 18.403,0" /></g></svg>